<?xml version="1.0" encoding="UTF-8"?>
<svg id="Capa_4" data-name="Capa 4" xmlns="http://www.w3.org/2000/svg" viewBox="0 0 20 20">
  <defs>
    <style>
      .cls-1 {
        fill: #fff;
      }
    </style>
  </defs>
  <path class="cls-1" d="m.02,10.08v-5.03h.59v-.7h.7v-.7h.69v-.7h.7v-.69h.7v-.7h.69v-.69h.69V.18h3.48v.69h.7v.7h.69v.68h.7v-.69h.7v-.7h.69V.19h3.48v.69h.69v.69h.7v.7h.69v.7h.7v.69h.7v.7h.69v.7h.56v5.03h-.57v.69h-.7v.7h-.69v.7h-.7v.69h-.7v.7h-.69v.7h-.7v.69h-.69v.69h-.7v.7h-.69v.7h-.7v.69h-.7v.7h-.69v.7h-.7v.67h-.69v-.69h-.7v-.7h-.69v-.7h-.7v-.69h-.7v-.7h-.69v-.69h-.69v-.7h-.7v-.69h-.7v-.7h-.69v-.7h-.7v-.69h-.66v-.7h-.73v-.69h-.69v-.69H.02Z"/>
</svg>