<?xml version="1.0" encoding="UTF-8"?>
<svg id="Capa_4" data-name="Capa 4" xmlns="http://www.w3.org/2000/svg" viewBox="0 0 20 20">
  <defs>
    <style>
      .cls-1 {
        fill: #fff;
      }
    </style>
  </defs>
  <path class="cls-1" d="m11.63,18.66c.12-.32.27-.63.34-.96.03-.14-.09-.32-.14-.46-.54.45-1.05.89-1.58,1.3-.19.15-.43.24-.67.32-.08.03-.22-.01-.31-.06-.29-.17-.58-.34-.84-.55-.33-.27-.64-.57-.98-.89-.09.22-.39.31-.35.6.02.16.09.31.13.47.03.11.07.21.09.32.02.11-.02.19-.13.24-.49.23-.98.46-1.46.7-.14.07-.27.15-.4.23-.11.07-.2.04-.27-.05-.19-.25-.4-.5-.55-.77-.31-.55-.61-1.11-.87-1.69-.28-.61-.52-1.23-.75-1.85-.07-.2-.07-.45-.05-.66.01-.09.17-.18.29-.23.49-.21.99-.41,1.49-.6.08-.03.17-.05.23-.07-.15-.28-.32-.55-.46-.84-.38-.77-.65-1.58-.84-2.42-.17-.79-.28-1.59-.22-2.4.02-.27.09-.53.14-.8.11-.54.33-1.04.56-1.54.02-.05-.01-.15-.05-.2-.26-.42-.52-.83-.78-1.24-.17-.27-.31-.56-.5-.8-.18-.23-.39-.43-.62-.61-.09-.07-.26-.04-.38-.08-.07-.02-.15-.05-.18-.1-.02-.03.05-.11.07-.17.03-.08.05-.16.06-.24,0-.06-.03-.12-.04-.18.09-.02.19-.08.27-.06.2.06.42.1.58.28.16.18.28.16.41-.01-.05-.03-.09-.06-.14-.09-.07-.04-.17-.05-.2-.1-.2-.37-.54-.28-.86-.29-.03,0-.06,0-.1,0-.01,0-.02,0-.09-.02.2-.2.37-.39.51-.53.05-.23.07-.43.14-.61.06-.15.17-.15.29-.02.21.23.42.45.69.66-.02-.07-.03-.15-.06-.21-.1-.16-.21-.31-.31-.47-.06-.1.04-.3.16-.33.31-.08.3-.08.5.17.06.07.17.09.26.14.02-.02.04-.03.06-.05-.02-.23-.04-.45-.06-.71.04,0,.13-.03.2-.01.45.1.93.15,1.35.33.38.17.73.46,1.04.76.49.47.93.98,1.39,1.47.14.15.26.35.43.43.16.08.38.05.58.05.39-.01.76-.16,1.16-.05.33.08.7.06,1.05.07.05,0,.12-.04.16-.08.48-.51.94-1.03,1.42-1.52.3-.31.62-.6.96-.87.18-.14.4-.26.63-.33.58-.18,1.18-.29,1.79-.3.29,0,.55.07.81.19.27.13.54.26.72.49.1.12.15.28.19.43.03.12-.07.17-.22.13-.05-.01-.11-.02-.2-.03-.01-.02-.05-.09-.1-.16-.1.18-.21.27-.41.13-.13-.1-.3-.04-.36.09-.05.11.04.27.18.32.22.07.44.15.67.06.05-.02.11,0,.19,0-.08.17-.1.37-.38.28.03.08.05.15.07.15.09.02.19,0,.28.03.14.04.15-.05.19-.14.1-.23.31-.31.46-.35.14.12.24.2.35.28.04.03.09.07.11.11.15.3.17.6-.01.91-.23.39-.23.39-.63.22-.38-.16-.76-.14-1.05.14-.31.3-.57.66-.82,1.02-.16.23-.25.52-.39.77-.15.27-.33.54-.51.8-.08.11-.05.16.01.26.09.13.14.29.18.44.05.18.08.37.12.56.1.45.24.89.28,1.34.1,1.22-.02,2.43-.44,3.59-.22.61-.52,1.2-.79,1.8-.02.05-.07.1-.11.17.24-.19.41-.02.61.07.45.22.9.44,1.36.65.11.05.17.12.18.26,0,.37-.09.72-.25,1.04-.4.77-.77,1.56-1.21,2.3-.33.55-.65,1.12-1.15,1.51-.7-.41-1.4-.81-2.11-1.23Z"/>
</svg>