<?xml version="1.0" encoding="UTF-8"?>
<svg id="Capa_4" data-name="Capa 4" xmlns="http://www.w3.org/2000/svg" viewBox="0 0 20 20">
  <defs>
    <style>
      .cls-1 {
        fill: #fff;
      }
    </style>
  </defs>
  <path class="cls-1" d="m11.39,1.96c2.12.53,3.62,2.23,3.66,4.52,0,.11-.09.21-.23.21h-2.58c-.11,0-.23-.09-.23-.21-.05-1.15-.94-1.71-2-1.71-1.13,0-2.05.65-2.05,2.03,0,1.17.99,1.8,2.05,1.8.11,0,1.24,0,2.4.53,1.75.83,2.7,2.49,2.7,4.4,0,2.58-1.66,4.17-3.71,4.65v1.66c0,.07-.09.16-.23.16h-2.19c-.14,0-.23-.09-.23-.16v-1.66c-2.21-.44-3.83-2.01-3.85-4.61,0-.09.09-.16.23-.16h2.6c.11,0,.23.07.23.16.05,1.2.99,1.77,2.05,1.77s2.05-.69,2.05-1.82c0-1.22-1.13-1.98-2.05-2.03-.14,0-1.27,0-2.44-.53-1.71-.81-2.67-2.26-2.67-4.17,0-2.6,1.73-4.35,3.85-4.84V.18c0-.09.09-.18.23-.18h2.19c.14,0,.23.09.23.18v1.77Z"/>
</svg>