<?xml version="1.0" encoding="utf-8"?>
<!-- Generator: Adobe Illustrator 27.1.1, SVG Export Plug-In . SVG Version: 6.00 Build 0)  -->
<svg version="1.1" id="Capa_1" xmlns="http://www.w3.org/2000/svg" xmlns:xlink="http://www.w3.org/1999/xlink" x="0px" y="0px"
	 viewBox="0 0 56 56" style="enable-background:new 0 0 56 56;" xml:space="preserve">
<style type="text/css">
	.st0{display:none;fill:#E5007E;}
	.st1{fill:#E5007E;}
</style>
<g>
	<path class="st0" d="M33.9,10.2C31.1,4,39,0.4,40,0c0.1,0,0.1,0,0.1,0s-3.5,2.9-2.2,7.7c1.3,4.9,5.3,4.1,6.6,9.2
		c1.1,4.3-0.8,7.6-0.8,7.6s0.1,0.1,0.3,0.3c0.1,0.1,0.1,0.2,0.2,0.4c0,0,0,0,0,0c0,0.1,0,0.2,0.1,0.2c0,0.4-0.2,0.7-0.5,0.8
		c-0.3,0.1-0.6,0.1-0.9-0.1c-2.2-1.9-4.9-3.1-8.2-3c-0.9,0-1.2-1.2-0.4-1.6c0,0,0,0,0,0c0,0,0.1,0,0.1,0c0.2-0.2,0.3-0.5,0.5-0.7
		c0-0.1,0.1-0.1,0.1-0.2c0-0.1,0.1-0.1,0.1-0.2C37.9,15.9,35.7,14.3,33.9,10.2z M36.3,39.8c1.5-0.7,2.8-1.9,3.3-3.5
		c0.2-0.5,0.3-1.1,0.5-1.6c0.7-1.5,2.5-2.2,3.4-3.7c-1.1,1.5-3,2.2-4.8,2.1c-0.8,0-1.6-0.2-2.4-0.2c-0.8,0-1.6,0.1-2.3,0.6
		c-0.8,0.6-1.2,1.7-1.4,2.7c-0.5,2.1-0.8,2.9-2.8,4.5c0,0,2.4-0.2,3.3-0.3C34.2,40.5,35.3,40.2,36.3,39.8z M45.6,36.5
		c-0.1,0.4-0.8,0.4-0.9,0.7c-0.3,0.9-0.9,1.2-1.5,2c-0.4,0.5-0.3,2.6-1,3.8c-0.7,1.2-1.3,1.1-2.4,2.2c-0.4,0.4-0.8,0.8-1.3,0.8
		c-0.2,0-0.4,0-0.6,0.1c-0.2,0.1-0.4,0.2-0.5,0.4c-0.5,0.5-1,1-1.4,1.5c-0.3,0.3-0.6,0.6-0.9,0.7c-0.5,0.2-1.2,0.1-1.7,0.3
		c-0.2,0.1-0.5,0.2-0.7,0.3c-0.2,0.1-0.5,0-0.7-0.2c-0.3-0.4,0.3-1.3-0.2-1.5c-0.2-0.1-0.4,0-0.6,0.1c-0.4,0.2-0.7,0.6-0.8,1.1
		c-0.2,0.5-0.2,1.1-0.7,1.3c0-0.2-0.4-0.3-0.6-0.3c-0.2,0.1-0.4,0.3-0.5,0.5c-0.3,0.5-0.4,1-0.8,1.4c-0.2,0.2-0.4,0.3-0.5,0.3v0
		c0,0,0,0,0,0c0,0,0,0,0,0v0c-0.1,0-0.2,0-0.5-0.3c-0.4-0.4-0.5-0.9-0.8-1.4c-0.1-0.2-0.3-0.4-0.5-0.5c-0.2-0.1-0.5,0-0.6,0.3
		c-0.5-0.2-0.5-0.8-0.7-1.3c-0.1-0.4-0.4-0.8-0.8-1.1c-0.2-0.1-0.4-0.2-0.6-0.1c-0.5,0.3,0.2,1.1-0.2,1.5c-0.1,0.2-0.4,0.2-0.7,0.2
		c-0.2-0.1-0.5-0.2-0.7-0.3c-0.5-0.2-1.2,0-1.7-0.3c-0.4-0.1-0.7-0.4-0.9-0.7c-0.5-0.5-1-1-1.4-1.5c-0.2-0.2-0.3-0.3-0.5-0.4
		c-0.2-0.1-0.4,0-0.6-0.1c-0.5-0.1-0.9-0.5-1.3-0.8c-1-1.1-1.7-1-2.4-2.2c-0.7-1.2-0.6-3.3-1-3.8c-0.6-0.8-1.2-1.1-1.5-2
		c-0.1-0.3-0.9-0.4-0.9-0.7c-0.1-0.4-1.4-0.9-1.7-0.7c1.2,0.9,1.8,2.4,2.4,3.8c0.2,0.5,1.3,1.6,1,2.1c-0.1,0.2-0.3,0.3-0.5,0.5
		c-0.4,0.5-0.3,1.1-0.1,1.7c0.3,0.5,0.8,0.9,1.3,1.1c0.4,0.1,0.7,0.2,1,0.4c0.7,0.5,0.9,1.5,1,2.4c0.2,1,0.4,2,0.8,3
		c0,0.1,0.1,0.2,0.2,0.3c0.1,0,0.1,0,0.2,0c0.4,0,0.8-0.4,1.2-0.7c0.4-0.3,0.9-0.5,1.2-0.2c0.1,0.1,0.2,0.3,0.3,0.4
		c0.2,0.2,0.5,0.2,0.8,0.4c0.4,0.3,0.5,0.8,0.5,1.3c0,0.1,0,0.2,0,0.3l0,0c0,0,0,1.3,0.1,2s1.1,1.4,1.8,1.3
		c-0.3-0.8-0.4-1.7-0.2-2.5c0.1-0.3,0.2-0.5,0.4-0.7c0.2-0.2,0.7,0,0.7,0.3c0.2-0.4,0.8-0.6,1.2-0.4c0.5,0.2,0.7,0.8,1.2,1
		c0.2,0.1,0.4,0,0.7,0.1c0.3,0.1,0.6,0.4,0.8,0.7c0.2,0.3,0.3,0.5,0.6,0.7c0.3,0.2,0.6,0.3,1.1,0.2c0.5,0,0.8-0.1,1.1-0.2
		c0.3-0.2,0.4-0.4,0.6-0.7c0.2-0.3,0.4-0.6,0.8-0.7c0.2-0.1,0.4,0,0.7-0.1c0.5-0.2,0.7-0.7,1.2-1c0.4-0.2,1,0,1.2,0.4
		c0-0.3,0.4-0.4,0.7-0.3c0.2,0.1,0.3,0.4,0.4,0.7c0.2,0.8,0.1,1.7-0.2,2.5c0.8,0.1,1.7-0.6,1.8-1.3c0.1-0.7,0.1-2,0.1-2l0,0
		c0-0.1,0-0.2,0-0.3c0-0.5,0.1-1,0.5-1.3c0.2-0.2,0.5-0.2,0.8-0.4c0.1-0.1,0.2-0.3,0.3-0.4c0.4-0.3,0.9-0.1,1.2,0.2
		c0.4,0.3,0.7,0.6,1.2,0.7c0.1,0,0.2,0,0.2,0c0.1-0.1,0.2-0.2,0.2-0.3c0.4-1,0.7-2,0.8-3c0.1-0.9,0.3-1.9,1-2.4
		c0.3-0.2,0.7-0.3,1-0.4c0.5-0.2,1.1-0.6,1.3-1.1c0.3-0.5,0.3-1.2-0.1-1.7c-0.1-0.2-0.4-0.3-0.5-0.5c-0.3-0.5,0.8-1.6,1-2.1
		c0.7-1.4,1.3-2.9,2.4-3.8C47,35.7,45.6,36.2,45.6,36.5z M10.8,24.8c-0.1,0.1-0.1,0.2-0.2,0.4c0,0,0,0,0,0c0,0.1,0,0.2-0.1,0.2
		c0,0.4,0.2,0.7,0.5,0.8c0.3,0.1,0.6,0.1,0.9-0.1c2.2-1.9,4.9-3.1,8.2-3c0.9,0,1.2-1.2,0.4-1.6c0,0,0,0,0,0c0,0-0.1,0-0.1,0
		c-0.2-0.2-0.3-0.5-0.5-0.7c0-0.1-0.1-0.1-0.1-0.2c0-0.1-0.1-0.1-0.1-0.2c-2.7-4.5-0.6-6,1.3-10.1C23.7,4,15.8,0.4,14.8,0
		c-0.1,0-0.1,0-0.1,0s3.5,2.9,2.2,7.7c-1.3,4.9-5.3,4.1-6.6,9.2c-1.1,4.3,0.8,7.6,0.8,7.6S10.9,24.6,10.8,24.8z M20.8,33.6
		c-0.6-0.5-1.5-0.6-2.3-0.6c-0.8,0-1.6,0.1-2.4,0.2c-1.8,0-3.7-0.7-4.8-2.1c0.8,1.5,2.7,2.2,3.4,3.7c0.2,0.5,0.3,1.1,0.5,1.6
		c0.5,1.6,1.8,2.8,3.3,3.5c1,0.5,2.1,0.7,3.2,0.7c0.9,0,3.3,0.3,3.3,0.3c-2-1.6-2.3-2.5-2.8-4.5C22,35.2,21.6,34.2,20.8,33.6z"/>
	<path class="st0" d="M35.1,10.2C32.3,4,40.2,0.4,41.2,0c0.1,0,0.1,0,0.1,0s-3.5,2.9-2.2,7.7c1.3,4.9,5.3,4.1,6.6,9.2
		c1.1,4.3-0.8,7.6-0.8,7.6s0.1,0.1,0.3,0.3c0.1,0.1,0.1,0.2,0.2,0.4c0,0,0,0,0,0c0,0.1,0,0.2,0.1,0.2c0,0.4-0.2,0.7-0.5,0.8
		c-0.3,0.1-0.6,0.1-0.9-0.1c-2.2-1.9-4.9-3.1-8.2-3c-0.9,0-1.2-1.2-0.4-1.6c0,0,0,0,0,0c0,0,0.1,0,0.1,0c0.2-0.2,0.3-0.5,0.5-0.7
		c0-0.1,0.1-0.1,0.1-0.2c0-0.1,0.1-0.1,0.1-0.2C39.1,15.9,36.9,14.3,35.1,10.2z M37.5,39.8c1.5-0.7,2.8-1.9,3.3-3.5
		c0.2-0.5,0.3-1.1,0.5-1.6c0.7-1.5,2.5-2.2,3.4-3.7c-1.1,1.5-3,2.2-4.8,2.1c-0.8,0-1.6-0.2-2.4-0.2c-0.8,0-1.6,0.1-2.3,0.6
		c-0.8,0.6-1.2,1.7-1.4,2.7c-0.5,2.1-0.8,2.9-2.8,4.5c0,0,2.4-0.2,3.3-0.3C35.4,40.5,36.5,40.2,37.5,39.8z M46.8,36.5
		c-0.1,0.4-0.8,0.4-0.9,0.7c-0.3,0.9-0.9,1.2-1.5,2c-0.4,0.5-0.3,2.6-1,3.8c-0.7,1.2-1.3,1.1-2.4,2.2c-0.4,0.4-0.8,0.8-1.3,0.8
		c-0.2,0-0.4,0-0.6,0.1c-0.2,0.1-0.4,0.2-0.5,0.4c-0.5,0.5-1,1-1.4,1.5c-0.3,0.3-0.6,0.6-0.9,0.7c-0.5,0.2-1.2,0.1-1.7,0.3
		c-0.2,0.1-0.5,0.2-0.7,0.3c-0.2,0.1-0.5,0-0.7-0.2c-0.3-0.4,0.3-1.3-0.2-1.5c-0.2-0.1-0.4,0-0.6,0.1c-0.4,0.2-0.7,0.6-0.8,1.1
		c-0.2,0.5-0.2,1.1-0.7,1.3c0-0.2-0.4-0.3-0.6-0.3c-0.2,0.1-0.4,0.3-0.5,0.5c-0.3,0.5-0.4,1-0.8,1.4c-0.2,0.2-0.4,0.3-0.5,0.3v0
		c0,0,0,0,0,0c0,0,0,0,0,0v0c-0.1,0-0.2,0-0.5-0.3c-0.4-0.4-0.5-0.9-0.8-1.4c-0.1-0.2-0.3-0.4-0.5-0.5c-0.2-0.1-0.5,0-0.6,0.3
		c-0.5-0.2-0.5-0.8-0.7-1.3c-0.1-0.4-0.4-0.8-0.8-1.1c-0.2-0.1-0.4-0.2-0.6-0.1c-0.5,0.3,0.2,1.1-0.2,1.5c-0.1,0.2-0.4,0.2-0.7,0.2
		c-0.2-0.1-0.5-0.2-0.7-0.3c-0.5-0.2-1.2,0-1.7-0.3c-0.4-0.1-0.7-0.4-0.9-0.7c-0.5-0.5-1-1-1.4-1.5c-0.2-0.2-0.3-0.3-0.5-0.4
		c-0.2-0.1-0.4,0-0.6-0.1c-0.5-0.1-0.9-0.5-1.3-0.8c-1-1.1-1.7-1-2.4-2.2c-0.7-1.2-0.6-3.3-1-3.8c-0.6-0.8-1.2-1.1-1.5-2
		c-0.1-0.3-0.9-0.4-0.9-0.7c-0.1-0.4-1.4-0.9-1.7-0.7c1.2,0.9,1.8,2.4,2.4,3.8c0.2,0.5,1.3,1.6,1,2.1c-0.1,0.2-0.3,0.3-0.5,0.5
		c-0.4,0.5-0.3,1.1-0.1,1.7c0.3,0.5,0.8,0.9,1.3,1.1c0.4,0.1,0.7,0.2,1,0.4c0.7,0.5,0.9,1.5,1,2.4c0.2,1,0.4,2,0.8,3
		c0,0.1,0.1,0.2,0.2,0.3c0.1,0,0.1,0,0.2,0c0.4,0,0.8-0.4,1.2-0.7c0.4-0.3,0.9-0.5,1.2-0.2c0.1,0.1,0.2,0.3,0.3,0.4
		c0.2,0.2,0.5,0.2,0.8,0.4c0.4,0.3,0.5,0.8,0.5,1.3c0,0.1,0,0.2,0,0.3l0,0c0,0,0,1.3,0.1,2c0.1,0.7,1.1,1.4,1.8,1.3
		c-0.3-0.8-0.4-1.7-0.2-2.5c0.1-0.3,0.2-0.5,0.4-0.7c0.2-0.2,0.7,0,0.7,0.3c0.2-0.4,0.8-0.6,1.2-0.4c0.5,0.2,0.7,0.8,1.2,1
		c0.2,0.1,0.4,0,0.7,0.1c0.3,0.1,0.6,0.4,0.8,0.7c0.2,0.3,0.3,0.5,0.6,0.7c0.3,0.2,0.6,0.3,1.1,0.2c0.5,0,0.8-0.1,1.1-0.2
		c0.3-0.2,0.4-0.4,0.6-0.7c0.2-0.3,0.4-0.6,0.8-0.7c0.2-0.1,0.4,0,0.7-0.1c0.5-0.2,0.7-0.7,1.2-1c0.4-0.2,1,0,1.2,0.4
		c0-0.3,0.4-0.4,0.7-0.3c0.2,0.1,0.3,0.4,0.4,0.7c0.2,0.8,0.1,1.7-0.2,2.5c0.8,0.1,1.7-0.6,1.8-1.3c0.1-0.7,0.1-2,0.1-2l0,0
		c0-0.1,0-0.2,0-0.3c0-0.5,0.1-1,0.5-1.3c0.2-0.2,0.5-0.2,0.8-0.4c0.1-0.1,0.2-0.3,0.3-0.4c0.4-0.3,0.9-0.1,1.2,0.2
		c0.4,0.3,0.7,0.6,1.2,0.7c0.1,0,0.2,0,0.2,0c0.1-0.1,0.2-0.2,0.2-0.3c0.4-1,0.7-2,0.8-3c0.1-0.9,0.3-1.9,1-2.4
		c0.3-0.2,0.7-0.3,1-0.4c0.5-0.2,1.1-0.6,1.3-1.1c0.3-0.5,0.3-1.2-0.1-1.7c-0.1-0.2-0.4-0.3-0.5-0.5c-0.3-0.5,0.8-1.6,1-2.1
		c0.7-1.4,1.3-2.9,2.4-3.8C48.2,35.7,46.9,36.2,46.8,36.5z M12,24.8c-0.1,0.1-0.1,0.2-0.2,0.4c0,0,0,0,0,0c0,0.1,0,0.2-0.1,0.2
		c0,0.4,0.2,0.7,0.5,0.8c0.3,0.1,0.6,0.1,0.9-0.1c2.2-1.9,4.9-3.1,8.2-3c0.9,0,1.2-1.2,0.4-1.6c0,0,0,0,0,0c0,0-0.1,0-0.1,0
		c-0.2-0.2-0.3-0.5-0.5-0.7c0-0.1-0.1-0.1-0.1-0.2c0-0.1-0.1-0.1-0.1-0.2c-2.7-4.5-0.6-6,1.3-10.1C24.9,4,17,0.4,16,0
		c-0.1,0-0.1,0-0.1,0s3.5,2.9,2.2,7.7c-1.3,4.9-5.3,4.1-6.6,9.2c-1.1,4.3,0.8,7.6,0.8,7.6S12.1,24.6,12,24.8z M22,33.6
		c-0.6-0.5-1.5-0.6-2.3-0.6c-0.8,0-1.6,0.1-2.4,0.2c-1.8,0-3.7-0.7-4.8-2.1c0.8,1.5,2.7,2.2,3.4,3.7c0.2,0.5,0.3,1.1,0.5,1.6
		c0.5,1.6,1.8,2.8,3.3,3.5c1,0.5,2.1,0.7,3.2,0.7c0.9,0,3.3,0.3,3.3,0.3c-2-1.6-2.3-2.5-2.8-4.5C23.2,35.2,22.8,34.2,22,33.6z"/>
	<path class="st1" d="M34.5,10.2C31.7,4,39.6,0.4,40.6,0c0.1,0,0.1,0,0.1,0s-3.5,2.9-2.2,7.7c1.3,4.9,5.3,4.1,6.6,9.2
		c1.1,4.3-0.8,7.6-0.8,7.6s0.1,0.1,0.3,0.3c0.1,0.1,0.1,0.2,0.2,0.4c0,0,0,0,0,0c0,0.1,0,0.2,0.1,0.2c0,0.4-0.2,0.7-0.5,0.8
		c-0.3,0.1-0.6,0.1-0.9-0.1c-2.2-1.9-4.9-3.1-8.2-3c-0.9,0-1.2-1.2-0.4-1.6c0,0,0,0,0,0c0,0,0.1,0,0.1,0c0.2-0.2,0.3-0.5,0.5-0.7
		c0-0.1,0.1-0.1,0.1-0.2c0-0.1,0.1-0.1,0.1-0.2C38.5,15.9,36.3,14.3,34.5,10.2z M36.9,39.8c1.5-0.7,2.8-1.9,3.3-3.5
		c0.2-0.5,0.3-1.1,0.5-1.6c0.7-1.5,2.5-2.2,3.4-3.7c-1.1,1.5-3,2.2-4.8,2.1c-0.8,0-1.6-0.2-2.4-0.2c-0.8,0-1.6,0.1-2.3,0.6
		c-0.8,0.6-1.2,1.7-1.4,2.7c-0.5,2.1-0.8,2.9-2.8,4.5c0,0,2.4-0.2,3.3-0.3C34.8,40.5,35.9,40.2,36.9,39.8z M46.2,36.5
		c-0.1,0.4-0.8,0.4-0.9,0.7c-0.3,0.9-0.9,1.2-1.5,2c-0.4,0.5-0.3,2.6-1,3.8c-0.7,1.2-1.3,1.1-2.4,2.2c-0.4,0.4-0.8,0.8-1.3,0.8
		c-0.2,0-0.4,0-0.6,0.1c-0.2,0.1-0.4,0.2-0.5,0.4c-0.5,0.5-1,1-1.4,1.5c-0.3,0.3-0.6,0.6-0.9,0.7c-0.5,0.2-1.2,0.1-1.7,0.3
		c-0.2,0.1-0.5,0.2-0.7,0.3c-0.2,0.1-0.5,0-0.7-0.2c-0.3-0.4,0.3-1.3-0.2-1.5c-0.2-0.1-0.4,0-0.6,0.1c-0.4,0.2-0.7,0.6-0.8,1.1
		c-0.2,0.5-0.2,1.1-0.7,1.3c0-0.2-0.4-0.3-0.6-0.3c-0.2,0.1-0.4,0.3-0.5,0.5c-0.3,0.5-0.4,1-0.8,1.4c-0.2,0.2-0.4,0.3-0.5,0.3v0
		c0,0,0,0,0,0c0,0,0,0,0,0v0c-0.1,0-0.2,0-0.5-0.3c-0.4-0.4-0.5-0.9-0.8-1.4c-0.1-0.2-0.3-0.4-0.5-0.5c-0.2-0.1-0.5,0-0.6,0.3
		c-0.5-0.2-0.5-0.8-0.7-1.3c-0.1-0.4-0.4-0.8-0.8-1.1c-0.2-0.1-0.4-0.2-0.6-0.1c-0.5,0.3,0.2,1.1-0.2,1.5c-0.1,0.2-0.4,0.2-0.7,0.2
		c-0.2-0.1-0.5-0.2-0.7-0.3c-0.5-0.2-1.2,0-1.7-0.3c-0.4-0.1-0.7-0.4-0.9-0.7c-0.5-0.5-1-1-1.4-1.5c-0.2-0.2-0.3-0.3-0.5-0.4
		c-0.2-0.1-0.4,0-0.6-0.1c-0.5-0.1-0.9-0.5-1.3-0.8c-1-1.1-1.7-1-2.4-2.2c-0.7-1.2-0.6-3.3-1-3.8c-0.6-0.8-1.2-1.1-1.5-2
		c-0.1-0.3-0.9-0.4-0.9-0.7c-0.1-0.4-1.4-0.9-1.7-0.7c1.2,0.9,1.8,2.4,2.4,3.8c0.2,0.5,1.3,1.6,1,2.1c-0.1,0.2-0.3,0.3-0.5,0.5
		c-0.4,0.5-0.3,1.1-0.1,1.7c0.3,0.5,0.8,0.9,1.3,1.1c0.4,0.1,0.7,0.2,1,0.4c0.7,0.5,0.9,1.5,1,2.4c0.2,1,0.4,2,0.8,3
		c0,0.1,0.1,0.2,0.2,0.3c0.1,0,0.1,0,0.2,0c0.4,0,0.8-0.4,1.2-0.7c0.4-0.3,0.9-0.5,1.2-0.2c0.1,0.1,0.2,0.3,0.3,0.4
		c0.2,0.2,0.5,0.2,0.8,0.4c0.4,0.3,0.5,0.8,0.5,1.3c0,0.1,0,0.2,0,0.3l0,0c0,0,0,1.3,0.1,2c0.1,0.7,1.1,1.4,1.8,1.3
		c-0.3-0.8-0.4-1.7-0.2-2.5c0.1-0.3,0.2-0.5,0.4-0.7c0.2-0.2,0.7,0,0.7,0.3c0.2-0.4,0.8-0.6,1.2-0.4c0.5,0.2,0.7,0.8,1.2,1
		c0.2,0.1,0.4,0,0.7,0.1c0.3,0.1,0.6,0.4,0.8,0.7c0.2,0.3,0.3,0.5,0.6,0.7c0.3,0.2,0.6,0.3,1.1,0.2c0.5,0,0.8-0.1,1.1-0.2
		c0.3-0.2,0.4-0.4,0.6-0.7c0.2-0.3,0.4-0.6,0.8-0.7c0.2-0.1,0.4,0,0.7-0.1c0.5-0.2,0.7-0.7,1.2-1c0.4-0.2,1,0,1.2,0.4
		c0-0.3,0.4-0.4,0.7-0.3c0.2,0.1,0.3,0.4,0.4,0.7c0.2,0.8,0.1,1.7-0.2,2.5c0.8,0.1,1.7-0.6,1.8-1.3c0.1-0.7,0.1-2,0.1-2l0,0
		c0-0.1,0-0.2,0-0.3c0-0.5,0.1-1,0.5-1.3c0.2-0.2,0.5-0.2,0.8-0.4c0.1-0.1,0.2-0.3,0.3-0.4c0.4-0.3,0.9-0.1,1.2,0.2
		c0.4,0.3,0.7,0.6,1.2,0.7c0.1,0,0.2,0,0.2,0c0.1-0.1,0.2-0.2,0.2-0.3c0.4-1,0.7-2,0.8-3c0.1-0.9,0.3-1.9,1-2.4
		c0.3-0.2,0.7-0.3,1-0.4c0.5-0.2,1.1-0.6,1.3-1.1c0.3-0.5,0.3-1.2-0.1-1.7c-0.1-0.2-0.4-0.3-0.5-0.5c-0.3-0.5,0.8-1.6,1-2.1
		c0.7-1.4,1.3-2.9,2.4-3.8C47.6,35.7,46.3,36.2,46.2,36.5z M11.4,24.8c-0.1,0.1-0.1,0.2-0.2,0.4c0,0,0,0,0,0c0,0.1,0,0.2-0.1,0.2
		c0,0.4,0.2,0.7,0.5,0.8c0.3,0.1,0.6,0.1,0.9-0.1c2.2-1.9,4.9-3.1,8.2-3c0.9,0,1.2-1.2,0.4-1.6c0,0,0,0,0,0c0,0-0.1,0-0.1,0
		c-0.2-0.2-0.3-0.5-0.5-0.7c0-0.1-0.1-0.1-0.1-0.2c0-0.1-0.1-0.1-0.1-0.2c-2.7-4.5-0.6-6,1.3-10.1C24.3,4,16.4,0.4,15.4,0
		c-0.1,0-0.1,0-0.1,0s3.5,2.9,2.2,7.7c-1.3,4.9-5.3,4.1-6.6,9.2c-1.1,4.3,0.8,7.6,0.8,7.6S11.5,24.6,11.4,24.8z M21.4,33.6
		c-0.6-0.5-1.5-0.6-2.3-0.6c-0.8,0-1.6,0.1-2.4,0.2c-1.8,0-3.7-0.7-4.8-2.1c0.8,1.5,2.7,2.2,3.4,3.7c0.2,0.5,0.3,1.1,0.5,1.6
		c0.5,1.6,1.8,2.8,3.3,3.5c1,0.5,2.1,0.7,3.2,0.7c0.9,0,3.3,0.3,3.3,0.3c-2-1.6-2.3-2.5-2.8-4.5C22.6,35.2,22.2,34.2,21.4,33.6z"/>
</g>
</svg>
