<?xml version="1.0" encoding="utf-8"?>
<!-- Generator: Adobe Illustrator 28.0.0, SVG Export Plug-In . SVG Version: 6.00 Build 0)  -->
<svg version="1.1" id="Capa_1" xmlns="http://www.w3.org/2000/svg" xmlns:xlink="http://www.w3.org/1999/xlink" x="0px" y="0px"
	 viewBox="0 0 512 512" style="enable-background:new 0 0 512 512;" xml:space="preserve">
<path d="M467.5,84.5h-423c-17.7,0-32,14.3-32,32v279c0,17.7,14.3,32,32,32h423c17.7,0,32-14.3,32-32v-279
	C499.5,98.8,485.2,84.5,467.5,84.5z M252.4,367.1c-0.4,3.8-3.3,6.9-7.6,7.4c-1.7,0.2-3.4,0.1-5.2,0.1H66.2c-6.9,0-10.4-0.9-12-4.3
	c-0.1-0.1-0.1-0.3-0.2-0.4c-0.1-0.3-0.2-0.5-0.3-0.8c-0.1-0.3-0.2-0.6-0.2-1c0-0.2-0.1-0.4-0.1-0.7c-0.1-0.5-0.1-1-0.2-1.5
	c-0.1-1.3-0.2-2.8-0.2-4.4V150.8c0-1.1,0-2.1,0.1-3.1c0-0.2,0-0.4,0-0.6c0-0.3,0-0.5,0.1-0.8c0-0.2,0-0.4,0.1-0.6
	c0.1-0.6,0.2-1.1,0.3-1.6c0-0.2,0.1-0.4,0.1-0.6c0.1-0.4,0.2-0.8,0.4-1.2c0-0.1,0.1-0.3,0.2-0.4c0.2-0.4,0.4-0.8,0.6-1.1
	c0.1-0.1,0.2-0.3,0.3-0.4s0.2-0.3,0.3-0.4c0.1-0.1,0.2-0.2,0.4-0.4c0.1-0.1,0.2-0.2,0.4-0.3l0,0c0.5-0.4,1-0.7,1.7-0.9
	c2.1-0.8,4.9-1.1,8.8-1c31.9,0.2,63.8-0.7,95.6,1.3c28.4,1.8,51.3,14.8,63.1,42.6c4.1,9.5,6.1,19.7,6.4,29.8c0,2.1,0,4.1-0.1,6.2
	c-1.1,21.5-10.3,41.9-26,54.2c-4.7,3.6-10,6.4-15.6,10.1c0,0,0,0,0,0c0,0,0,0,0,0c19.4,25.4,38.5,50.4,57.5,75.4
	c1.4,1.8,3,3.6,4,5.8c0.3,0.7,0.5,1.3,0.7,2c0,0.2,0.1,0.5,0.1,0.7C252.5,366.1,252.5,366.6,252.4,367.1z M277,371.9
	c-0.1-0.1-0.2-0.2-0.3-0.3c-0.1-0.1-0.2-0.3-0.3-0.4c-1.1-1.9-1.5-4.6-1.5-8.6V149.9c0-9.9,2.7-12.7,12.5-12.6
	c30.6,0.2,61.2-0.2,91.8,1.3c10.2,0.5,20.7,4.1,29.9,8.6c4.1,2,7.6,4.4,10.7,7c1,0.9,2,1.8,3,2.8c0.4,0.4,0.8,0.9,1.2,1.3
	c0.4,0.4,0.8,0.9,1.2,1.3c0.3,0.4,0.7,0.9,1,1.3c0.4,0.5,0.7,0.9,1.1,1.4c0.3,0.5,0.7,1,1,1.4c0.3,0.5,0.7,1,1,1.5
	c0.2,0.3,0.4,0.6,0.5,0.9c0.4,0.7,0.8,1.4,1.2,2.2c0.2,0.4,0.4,0.8,0.6,1.1c0.1,0.2,0.2,0.4,0.3,0.7c0.2,0.4,0.4,0.8,0.6,1.3
	c0.2,0.5,0.5,1.1,0.7,1.6c2.7,6.6,4.2,13.9,4.9,21.6c1.6,17.9-1,35-12.9,49.6c0.1,0,0.1,0.1,0.2,0.1c0,0,0,0,0,0
	c1.1,0.7,2.2,1.4,3.3,2c1.7,1.1,3.4,2.1,5.1,3.2c0.8,0.5,1.6,1.1,2.4,1.6c0.4,0.3,0.8,0.6,1.1,0.9c0.4,0.3,0.8,0.6,1.1,0.9
	c1,0.8,1.9,1.6,2.7,2.4c0,0,0,0.1,0.1,0.1c0.4,0.4,0.9,0.9,1.3,1.3c0.8,0.8,1.6,1.7,2.4,2.6c0.4,0.5,0.8,0.9,1.1,1.4
	c10.3,12.7,13.4,28.5,12.9,45.2c-1,35.1-20.9,57.6-57.9,65.7c-8.3,1.8-17,2.8-25.5,2.9c-29.5,0.4-59.1,0.2-88.6,0.2
	c-4.8,0-7.8-0.6-9.6-2.5C277.2,372.1,277.1,372,277,371.9z"/>
</svg>
