<?xml version="1.0" encoding="utf-8"?>
<!-- Generator: Adobe Illustrator 28.0.0, SVG Export Plug-In . SVG Version: 6.00 Build 0)  -->
<svg version="1.1" id="Capa_1" xmlns="http://www.w3.org/2000/svg" xmlns:xlink="http://www.w3.org/1999/xlink" x="0px" y="0px"
	 viewBox="0 0 512 512" style="enable-background:new 0 0 512 512;" xml:space="preserve">
<g>
	<path d="M502,254c0.3,109.9-65,206.6-164.6,243.9c-92.6,34.7-203.9,3.6-268.3-75C-32.7,298.6,0.9,111.5,139.5,30.7
		c106-61.8,249.8-27.2,317.1,76.3C485.8,151.7,501.6,200.5,502,254z M451.9,253.6c-1.2-36.4-9.9-71-27.2-103.6
		C380.9,67.9,277.9,27.6,194.4,59.9C67.4,109,21.2,263,100.2,374.1c57.6,81,164.4,106.1,251,57.7
		C420.4,393.1,448.5,330.3,451.9,253.6z"/>
	<path d="M291,186.4c16.5-4.4,32.4-8.7,49.6-13.3c7.4,30.7,14.9,60.6,21.6,90.7c2.6,11.9,4.4,24.3,4.6,36.5
		c0.6,42.8-20.1,74-59.8,89.6c-12.4,4.9-25.9,8.2-39.1,9.7c-43.2,5-77-12.9-92.1-53.5c-14.4-38.8-23.7-79.6-35.6-120.7
		c17.9-5.1,33.4-9.4,50.3-14.2c4.1,16.5,8,32.1,11.8,47.7c4.3,17.7,7.4,35.8,12.8,53.2c11.5,37.5,43.4,50,75.5,30.3
		c18.5-11.3,25.1-28.7,21.9-49c-4.4-27.4-10.6-54.5-16.1-81.7C294.6,203.6,292.9,195.5,291,186.4z"/>
	<path d="M209.1,153.7c0.1,16.2-12.4,29-28.3,29c-15.2,0-28.1-13.7-28-29.6c0.2-15.7,13.1-28.6,29-28.7
		C198.2,124.3,209,135.9,209.1,153.7z"/>
	<path d="M272.6,101.9c15.6,0.1,27.7,13,27.7,29.4c0,16-12.9,29.2-28.3,29c-15.2-0.1-27.9-13.6-27.9-29.6
		C244.1,114.9,257,101.8,272.6,101.9z"/>
</g>
</svg>
