<?xml version="1.0" encoding="utf-8"?>
<!-- Generator: Adobe Illustrator 28.0.0, SVG Export Plug-In . SVG Version: 6.00 Build 0)  -->
<svg version="1.1" id="Capa_1" xmlns="http://www.w3.org/2000/svg" xmlns:xlink="http://www.w3.org/1999/xlink" x="0px" y="0px"
	 viewBox="0 0 512 512" style="enable-background:new 0 0 512 512;" xml:space="preserve">
<g>
	<path d="M255.3,512C114.1,511.6-0.6,396.1,0,254.8C0.6,114,115.9-0.4,256.7,0C397.9,0.4,512.6,115.9,512,257.2
		C511.4,398,396.1,512.4,255.3,512z M326,463.1c67.2-24.8,112.3-70.1,137-137.2c-3.8-1.7-6.7-3-9.7-4.3
		c-39.9-16.6-79.9-33.1-119.8-49.7c-16-6.6-16-6.6-15.2-24.2c0-0.3,0.2-0.6,0.5-1.5c47.7-19.8,95.8-39.7,144.4-59.9
		c-25-67.6-70.4-112.7-137.6-137.4c-20.3,49-40.3,97.1-60.1,144.7c-7.1,0-13,0-19.2,0c-20-48.3-40-96.4-60.1-144.9
		C118.6,74,73.4,119.2,48.9,186.4c48.9,20.3,96.8,40.2,144.4,59.9c1.3,19,1.3,18.9-14.9,25.7c-40,16.5-79.9,33.1-119.8,49.7
		c-3.2,1.3-6.3,2.9-9.7,4.5C74,393.6,119.4,438.6,186.2,463c1.9-4.3,3.2-7.3,4.5-10.3c17.6-42.4,35.5-84.7,52.5-127.3
		c3.4-8.5,8.9-6.5,14.8-7.3c6.4-0.9,8.5,2.2,10.7,7.4c17.5,42.8,35.3,85.5,53.1,128.2C323,456.6,324.4,459.5,326,463.1z"/>
	<path d="M288.3,255.8c0.1,18.1-14,32.4-32,32.5c-18.1,0.1-32.4-14-32.5-32c-0.1-18.1,14-32.4,32-32.5
		C273.9,223.6,288.2,237.8,288.3,255.8z"/>
	<path d="M170.3,88.2c3,7.2,5.5,13.2,7.7,18.6c-13.5,10.8-27.3,20-38.9,31.6c-11.6,11.6-21,25.5-32.2,39.5c-4.9-2-11.2-4.6-18.3-7.5
		C107.1,134.1,133.9,107.5,170.3,88.2z"/>
	<path d="M423.8,170.3c-7.3,3-13.6,5.6-18.6,7.6c-11.2-13.9-20.5-27.8-32.2-39.4c-11.4-11.4-25.1-20.5-39-31.7
		c2-4.8,4.5-11,7.6-18.3C377.8,107,404.3,133.8,423.8,170.3z"/>
	<path d="M88.3,341.8c7-2.9,13.1-5.4,20.2-8.4c16.6,29.8,39.4,53.3,70.2,70c-2.7,6.6-5.3,12.9-8.3,20.2
		C134.2,404.9,107.6,378.2,88.3,341.8z"/>
	<path d="M405.3,334.1c5.3,2.2,11.3,4.7,18.3,7.6c-18.6,36.2-45.4,62.8-81.5,81.9c-2.9-6.6-5.6-12.8-8.1-18.3
		c13.5-10.8,27.4-20,39-31.6C384.6,362,393.9,348.1,405.3,334.1z"/>
	<path d="M136.6,190.2c13-23.2,30.3-40.4,53.5-53.6c3,7,5.7,13.3,7.7,17.8c-14.7,14.7-28.4,28.4-43.2,43.3
		C150.1,195.9,143.8,193.2,136.6,190.2z"/>
	<path d="M314.3,154.5c1.8-4.4,4.5-10.7,7.5-17.9c23.3,13,40.4,30.3,53.6,53.4c-7,3-13.2,5.7-17.8,7.7
		C342.9,183.1,329.1,169.4,314.3,154.5z"/>
	<path d="M136.4,321.8c7.3-3,13.3-5.6,18.1-7.6c14.3,14.4,28,28.1,43.1,43.3c-1.7,4.1-4.2,10.4-7.2,17.8
		C167,362.7,150.2,345.2,136.4,321.8z"/>
	<path d="M357.5,314.3c4.4,1.9,10.7,4.5,17.9,7.5c-12.9,23.4-30.3,40.3-53.4,53.7c-3-7.1-5.7-13.3-7.7-17.9
		C328.9,342.9,342.6,329.1,357.5,314.3z"/>
	<path d="M182.8,208c8.8-8.8,16.4-16.4,24.1-24c1.3,0.6,2.5,1.2,3.8,1.9c1.2,7.7,11.4,13.7,4.7,22.6
		C206.4,220.5,204,220.1,182.8,208z"/>
	<path d="M303.9,183.4c8.8,8.5,16.5,16,24.2,23.5c-0.7,1.3-1.3,2.6-2,3.9c-7.8,0.8-13.7,11.5-22.7,4.5
		C291.5,206.1,291.9,203.4,303.9,183.4z"/>
	<path d="M186.6,300.2c8.2,1.6,14-12.5,23.7-2c8.9,9.6,9.1,9.4-0.9,29.4c-8.5-8.3-16.4-16.1-24.4-23.9
		C185.6,302.5,186.1,301.3,186.6,300.2z"/>
	<path d="M327.8,302.9c-8.3,9-15.8,17-23.2,25c-1.2-0.7-2.5-1.5-3.7-2.2c0.1-7.9-11.8-13.6-3.8-22.8
		C306.9,291.6,307.3,291.9,327.8,302.9z"/>
</g>
</svg>
