<?xml version="1.0" encoding="utf-8"?>
<!-- Generator: Adobe Illustrator 28.0.0, SVG Export Plug-In . SVG Version: 6.00 Build 0)  -->
<svg version="1.1" id="Capa_1" xmlns="http://www.w3.org/2000/svg" xmlns:xlink="http://www.w3.org/1999/xlink" x="0px" y="0px"
	 viewBox="0 0 512 512" style="enable-background:new 0 0 512 512;" xml:space="preserve">
<g>
	<path d="M511.9,344.2c0.4,14.4-0.7,29.3-1.8,44.2c-0.1,2.1-0.9,3.6-2.7,4.9c-37.2,28.2-77.9,49.8-122.2,64.7
		c-3.9,1.3-6,0.9-8.4-2.7c-8.1-12.7-15.9-25.6-22.8-39c-1.4-2.7-1.1-4,1.8-5.2c12.3-4.8,24.1-10.8,35.5-17.5
		c4.2-2.5,3.9-2.8,0.5-6.2c-4.4-4.3-8.2-4.8-14-2c-25.6,12.2-52.6,20-80.6,24.1c-25.6,3.8-51.2,3.9-76.9,0.7
		c-31.6-3.9-61.7-13-90.6-26.4c-2.8-1.3-4.7-1.3-6.8,0.9c-1.3,1.3-2.8,2.4-4.3,3.5c-2.5,1.9-2.1,3.4,0.5,4.9
		c11.6,6.6,23.4,12.8,35.8,17.8c4,1.6,4.1,1.9,2.1,5.8c-6.9,13.9-14.9,27.3-23.7,40.1c-1.3,2-2.6,2.5-4.8,1.7
		c-34-11.2-66.1-26.4-96.2-45.8c-9.4-6.1-18.5-12.4-27.4-19.1c-2.2-1.6-3-3.4-3.3-6c-2.1-23.6-2.5-47.2-1.1-70.8
		c3-51.4,14.3-100.9,34.2-148.4c11.5-27.6,25.4-54,41.6-79.2c1.1-1.7,2.5-2.9,4.3-3.8c31.6-14.8,64.6-25.5,98.9-32
		c3-0.6,4.7,0,6.1,2.9c3.6,7.4,7.5,14.6,10.5,22.3c0.9,2.3,2.2,2.9,4.4,2.5c15.4-2.3,30.9-3.5,46.4-4c14.5-0.5,28.9,0.2,43.3,1.5
		c7.1,0.6,14.1,1.6,21.1,2.5c2.3,0.3,3.5-0.2,4.4-2.5c3-7.8,6.8-15.2,10.4-22.7c1.2-2.4,2.6-3.1,5.2-2.6
		c28.3,5.4,55.9,13.5,82.5,24.7c4.2,1.8,8.2,3.9,12.5,5.3c5.6,1.9,9,5.6,12,10.5c20,32.3,36.9,66,49.1,102
		c10.1,29.5,17.1,59.7,20.9,90.7C510.9,305.4,512.2,324.5,511.9,344.2z M295.4,272c-0.1,16.4,3.3,27.7,10.1,38
		c17,25.4,50.5,26.8,69.5,2.9c16.9-21.3,16.3-54.2-1.5-75.1c-14.7-17.3-39.4-20.2-57.4-6.3C301.6,242.6,295.8,258.1,295.4,272z
		 M217.1,275.8c0.1-12.7-3.5-24.1-10.8-34.5c-15.8-22.6-47.1-25-65.9-4.9c-20.6,22-20.4,58,0.4,80.1c14.6,15.5,37.1,18,54.3,5.5
		C210.7,310.7,216.9,294.5,217.1,275.8z"/>
</g>
</svg>
