<?xml version="1.0" encoding="utf-8"?>
<!-- Generator: Adobe Illustrator 28.0.0, SVG Export Plug-In . SVG Version: 6.00 Build 0)  -->
<svg version="1.1" id="Capa_1" xmlns="http://www.w3.org/2000/svg" xmlns:xlink="http://www.w3.org/1999/xlink" x="0px" y="0px"
	 viewBox="0 0 512 512" style="enable-background:new 0 0 512 512;" xml:space="preserve">
<g>
	<path d="M240.4,229.9c0-10.4,0-19.6,0-29.9c-8.1,0-15.9,1.2-23.1-0.4c-5.5-1.2-12.5-4.8-14.7-9.3c-5.4-11.2-8.4-23.6-12.7-36.3
		c44.2,0,87.3,0,132.2,0c-4.6,13.3-8.1,26.3-13.8,38.3c-1.8,3.9-8.8,6.5-13.9,7.4c-7.1,1.2-14.5,0.3-22.6,0.3c0,10,0,19.4,0,29.9
		c3.8,0,7.4,0,11,0c25,0,49.9-0.1,74.9,0.1c12.6,0.1,18.6,6.5,17.6,18.8c-5.8,73-11.5,146-17.6,219c-2,24.1-22.4,43.6-46.6,43.9
		c-36.9,0.5-73.9,0.6-110.9,0c-23.7-0.4-44.1-19.6-46.1-43.3c-5-59-9.5-118.1-14.2-177.2c-1.1-13.3-2-26.6-3.2-39.8
		c-1.4-15.4,3.9-21.4,19.6-21.5C184,229.8,211.6,229.9,240.4,229.9z"/>
	<path d="M255.9,0c22.3,0,44.6-0.1,66.9,0c12.2,0.1,16.9,4.7,17,16.9c0.1,29.9,0.1,59.9,0,89.8c-0.1,11.6-4.7,16.6-16.3,16.7
		c-44.9,0.2-89.8,0.2-134.7,0c-11.6,0-16.4-5-16.4-16.5c-0.1-29.9-0.1-59.9,0-89.8c0-12.6,4.8-17,17.8-17C212,0,234,0,255.9,0z"/>
	<path d="M141.8,17.7c0,29.1,0,58.2,0,88.1c-3.1,0.2-5.9,0.7-8.8,0.7c-37.6,0-75.2,0.1-112.7,0c-15.5,0-20.1-4.7-20.1-20.3
		C0.1,68.6,0,51,0.2,33.4C0.3,23,5.7,16.7,15.9,16.7c40.9-0.3,81.8-0.1,122.7,0C139.5,16.7,140.5,17.3,141.8,17.7z"/>
	<path d="M370.2,106.5c0-30.4,0-59.6,0-89.4c3.3-0.2,6.2-0.6,9.1-0.6c37.2,0,74.5-0.1,111.7,0c16,0,20.8,4.9,20.9,20.8
		c0,17.6,0.2,35.3-0.1,52.9c-0.1,10.2-5.4,16.1-15,16.2C454.9,106.6,413,106.5,370.2,106.5z"/>
	<path d="M402.5,286.2c37.5,8.3,63.4,44.9,58.5,81.2c-5.1,37.8-36.4,67.7-70,65.9c0.4-7.8,0.5-15.7,1.6-23.5
		c0.4-2.4,3.2-5.6,5.6-6.5c19.7-7.3,31.9-21,32.9-42c1-19.8-9.1-34-26.5-43.4c-2.2-1.2-4.2-4.9-4.2-7.5
		C400.6,302.5,401.7,294.6,402.5,286.2z"/>
</g>
</svg>
