<?xml version="1.0" encoding="utf-8"?>
<!-- Generator: Adobe Illustrator 28.0.0, SVG Export Plug-In . SVG Version: 6.00 Build 0)  -->
<svg version="1.1" id="Capa_1" xmlns="http://www.w3.org/2000/svg" xmlns:xlink="http://www.w3.org/1999/xlink" x="0px" y="0px"
	 viewBox="0 0 512 512" style="enable-background:new 0 0 512 512;" xml:space="preserve">
<g>
	<path d="M427.4,113.1c-24.5-26.2-53.9-45.4-87.5-58c-2.5-0.9-5.5-3.7-8-0.1c-4.4,6.5-1.9,14.4,5.4,17.3
		c83.5,33.6,138.5,114.2,138.6,203.3c0.1,44.6-14.4,89.1-41.2,126.8c-82.4,115.9-252.1,124.1-344.9,16.6
		C-1.1,313.8,27.7,152.5,149.4,84.7c9.3-5.2,19.1-9.5,28.9-13.7c8.4-3.6,2.8-10,1.9-14.8c-1-5.4-5.3-2.1-7.8-1
		c-9.5,4.2-19,8.5-28.2,13.4C39,123.9-9.1,247.3,34.4,358.1c35.5,90.3,103.2,143,200.3,152.6c86.1,8.5,157.5-23.7,209.8-92.2
		C516.3,324.5,508.3,199.5,427.4,113.1z"/>
	<path d="M232.1,342.5c-4.5-2.1-5.3-6.8-8.9-8.9c-7.9-4.2-16-7.9-24.8-10c-9,0.5-18,0.7-26.5,4.1c-0.7,0.6-1.4,1.3-2.1,1.9
		c0,0-0.1-0.1-0.1,0c-7.6,5-15.4,9.7-20.6,17.9c-5.7-6.8-8-15.3-13.5-21.8c-0.7-0.6-1.3-1.2-2-1.7c-8.1-5.5-16.3-11-25.4-14.7
		c-4.6-0.2-9.2-0.4-13.8-0.5c-2-0.1-3.8-0.1-3.5-3c1.3-10.2-4.6-17.9-9.1-26.1l0,0c-5.9-4.4-10.8-10.2-18-12.7
		c-0.4-1.4-6.9,0.4-1.9-4.1c2.9-2.6,4.6-6.6,6.9-9.9c2.6-4.7,1.8-9.9,1.8-14.9c0.3-2.9-1.8-5-2.7-7.6c-1.6-4.5-4.3-9.7-9.1-8.9
		c-3,0.5-3.3,6.7-3.2,10.8c-4.3,13.3-5.1,27.1-4.8,41c0,2.2,0,4.4-0.1,6.5c-0.6,13.9,1.1,27.4,5,40.8c0.1,0.9,0.2,1.7,0.3,2.6
		c15.2,60.5,50.3,105.5,105.4,134.8c16.4,8.7,33.4,16,52,18.6c2.4,1.8,5.2,1.6,8,1.5c5.1,2.3,10.7,2,16,2.4
		c50.1,4.2,96-7.4,137.1-36.9h2.3c0.4-1.1,0.5-1.1,0.9-2.2c14.5-10.5,27.9-22.1,38.3-36.8c0,0,0,0,0,0c7.5-8,13.7-16.8,18.5-26.7
		c10.1-16.2,17-33.7,21.1-52.4c-4.7-0.8-4.7-0.8,0,0c2.3-8.1,4.7-16.1,4.1-24.7c2.7-8.8,2.2-17.9,1.8-26.9
		c-0.1-4.3-0.2-8.5-0.3-12.8c-1.9-1.6-1.9-1.6,0,0c-0.2-8.9-1.5-17.7-3.6-26.4c-0.9-4.4-1.3-8.9-4-13.9c-3,4.4-7.2,7.2-8.7,12
		c-1.5,4.9-3.7,9.6-1.9,14.9c-0.2,5.6,8.7,12.9-3,16.4c-5.3,4.7-11.2,8.8-13.1,16.3c-3.5,8.2-4.9,16.5-1,25.1
		c-3.5,3.4-9.7,2.5-12.3,7.4c-3.3,4-6.6,7.9-9.8,11.9c-2.7,3.5-4.6,6.4-10.3,3.8c-4.7-2.1-10.6-1.3-16-1.8
		c-6.7,2.2-14.1,3.2-18.8,9.4c-3.1,3.8-6.1,7.6-9.2,11.4c-1.4-1.6-2.9-3.2-4.3-4.8c-6.4-4.3-12.4-9.2-20-11.5
		c-7.7-0.5-15.4-2.8-23.1,0.2c-0.9,0-1.7,0.2-2,1.2c-7,2.9-14,5.8-19.4,11.4c-2.2-7.5-4.3-15.1-6.5-22.6
		c-2.7-14.9-6.9-29.4-11.1-43.9c0.8-5.5-1.4-12.6,5.8-15c5.6-1.9,8.5-5.3,10.3-10.5c2.3-6.4,3.8-13.2,8.8-20.9
		c3.3,17.8,6.2,33.6,9.1,49.3c3.2-12.8,5.7-25.4,7.4-38.1c0.9-6.8,4.3-13.7,0.9-20.8c-7.6-15.6-15.2-31.3-22.7-47
		c0.2-2.4,0.3-4.9,0.6-7.3c4.2-38.8,8.3-77.7,12.5-116.5c0.3-3.2,1.4-6.7-1.2-9.4c-12.1-12.7-24.1-25.6-35.1-39.4
		c-2.7-3.4-4.8-2.2-7.2,0.5c-10.6,11.8-21.3,23.4-31.9,35.1c-3.2,3.5-4.8,7.5-4.1,12.7c1.8,13.3,2.9,26.6,4.3,39.9
		c3,28.2,5.9,56.5,8.9,84.8c-7.6,15.4-15.2,30.7-22.8,46.1c-1.4,2.8-2,5.7-1.5,8.7c2.9,17.5,5.8,34.9,8.7,52.4c0.7,0,0.5,0,1.2,0
		c2.9-16.3,5.7-32.7,9-51.2c5.1,8.2,6.6,15.1,9.2,21.5c1.3,3.3,2.3,7.6,5.9,8.4c9.9,2.1,9,9.8,9.8,16.9c-5.2,15.3-8.5,31.2-11.9,47
		C235.6,330.6,233.9,336.4,232.1,342.5z"/>
</g>
</svg>
