<?xml version="1.0" encoding="utf-8"?>
<!-- Generator: Adobe Illustrator 28.0.0, SVG Export Plug-In . SVG Version: 6.00 Build 0)  -->
<svg version="1.1" id="Capa_1" xmlns="http://www.w3.org/2000/svg" xmlns:xlink="http://www.w3.org/1999/xlink" x="0px" y="0px"
	 viewBox="0 0 512 512" style="enable-background:new 0 0 512 512;" xml:space="preserve">
<g>
	<path d="M465.7,421.2c0,3.7-2.4,8.6-7.3,14.6C415.7,486.6,359,512,288.2,512c-72.4,0-131.1-24.7-176.1-74.1
		c-43.9-47.8-65.8-108.1-65.8-181c0-70.5,21.5-130.4,64.4-179.6C155.5,25.8,212.4,0,281.6,0c75.2,0,134.1,23.1,176.8,69.3
		c4.6,5.1,7,9.6,7,13.6c0,4.4-8.1,20.8-24.2,49.1c-16.1,28.3-26.3,44.2-30.5,47.7c-1.9,1.9-4.2,2.8-7,2.8c-1.2,0-7-4.6-17.4-13.9
		c-12.5-11.1-24.8-19.8-36.9-26.1c-18.3-9.3-37.4-13.9-57.1-13.9c-34.1,0-61.4,12.8-81.8,38.3c-18.8,23.7-28.2,52.9-28.2,87.7
		c0,35.3,9.4,64.9,28.2,88.8c20.4,26,47.7,39,81.8,39c20.2,0,39.3-4.4,57.4-13.2c11.8-5.8,23.9-13.9,36.2-24.4
		c10.2-8.8,15.9-13.2,17.1-13.2c2.3,0,4.6,1.3,7,3.8c3.7,4.2,13.8,18.7,30.3,43.5C457.2,404.4,465.7,418.6,465.7,421.2z"/>
</g>
</svg>
