<?xml version="1.0" encoding="utf-8"?>
<!-- Generator: Adobe Illustrator 28.0.0, SVG Export Plug-In . SVG Version: 6.00 Build 0)  -->
<svg version="1.1" id="Capa_1" xmlns="http://www.w3.org/2000/svg" xmlns:xlink="http://www.w3.org/1999/xlink" x="0px" y="0px"
	 viewBox="0 0 512 512" style="enable-background:new 0 0 512 512;" xml:space="preserve">
<g>
	<path d="M375.4,275.4c-12.8,4.4-23.5,7.7-33.8,11.7c-12.4,4.8-17.8,13-17.6,27.6c1,56.1,0.5,112.1,0.4,168.2
		c0,25.1-3.6,28.7-28,28.8c-28.4,0.1-56.8-0.2-85.2,0.1c-15.9,0.2-23.5-6.8-23.4-23c0.2-104.3,0.2-208.7,0-313
		c0-16.4,8.2-22.7,23.9-22.5c29.1,0.4,58.3-0.9,87.3,0.7c10,0.6,19.6,7.8,30,12.2c30.2-4,63.3-11.4,96.7-12.1
		c50.2-1.1,85.9,35.9,86.3,85.7c0.6,82.3-0.1,164.7,0.3,247c0.1,18.4-7.9,25.4-25.8,25c-28.4-0.6-56.8-0.8-85.2,0
		c-19.6,0.5-26.2-8.3-26-27.1c0.6-61,0.2-122.1,0.2-183.1C375.4,294.1,375.4,286.4,375.4,275.4z"/>
	<path d="M0.1,330.4c0-49.7,0.5-99.4-0.3-149c-0.3-19.7,6.4-28.9,27.1-28.2c27.6,1,55.4,0.8,83,0c18.9-0.5,27,6.6,27,26.1
		c-0.5,102.2-0.4,204.4,0,306.6c0.1,17.7-6.3,26.4-24.9,26c-29.1-0.6-58.2-0.6-87.3,0C6.1,512.3-0.2,503.5,0,485.9
		C0.5,434.1,0.1,382.2,0.1,330.4z"/>
	<path d="M69.5,0c37.1,0.5,67.2,31.2,67.2,68.2c0,37.9-31.4,68.8-69.3,68.2c-37.9-0.5-68.2-32.4-67.1-70.4C1.3,29.1,32.4-0.5,69.5,0
		z"/>
</g>
</svg>
