<?xml version="1.0" encoding="utf-8"?>
<!-- Generator: Adobe Illustrator 28.0.0, SVG Export Plug-In . SVG Version: 6.00 Build 0)  -->
<svg version="1.1" id="Capa_1" xmlns="http://www.w3.org/2000/svg" xmlns:xlink="http://www.w3.org/1999/xlink" x="0px" y="0px"
	 viewBox="0 0 627 512" style="enable-background:new 0 0 627 512;" xml:space="preserve">
<g>
	<path d="M317.5,415c-42.1-1.5-72.2-10.3-97.6-31.8c-22.6-19.2-34.4-43.8-34.9-73.5c-0.3-16.4,9.7-28,24.3-28.7
		c13.8-0.7,194.2-1.1,208.9,0c15.5,1.1,24.5,13.4,23.7,32c-1.6,33.3-17.3,58.8-44.4,77.4C370.6,408.9,340.3,415.3,317.5,415z"/>
</g>
<g>
	<path d="M313.5,26.5c31,0,61,6.1,89.3,18c27.3,11.6,51.9,28.1,73,49.2s37.6,45.6,49.2,73c12,28.3,18,58.3,18,89.3s-6.1,61-18,89.3
		c-11.6,27.3-28.1,51.9-49.2,73s-45.6,37.6-73,49.2c-28.3,12-58.3,18-89.3,18s-61-6.1-89.3-18c-27.3-11.6-51.9-28.1-73-49.2
		s-37.6-45.6-49.2-73C90.1,317,84,287,84,256s6.1-61,18-89.3c11.6-27.3,28.1-51.9,49.2-73s45.6-37.6,73-49.2
		C252.5,32.6,282.5,26.5,313.5,26.5 M313.5,0c-141.4,0-256,114.6-256,256s114.6,256,256,256s256-114.6,256-256S454.9,0,313.5,0
		L313.5,0z"/>
</g>
<g>
	<circle cx="409.5" cy="177.2" r="47.2"/>
	<circle cx="217.5" cy="177.2" r="47.2"/>
</g>
</svg>
