<?xml version="1.0" encoding="utf-8"?>
<!-- Generator: Adobe Illustrator 28.0.0, SVG Export Plug-In . SVG Version: 6.00 Build 0)  -->
<svg version="1.1" id="Capa_1" xmlns="http://www.w3.org/2000/svg" xmlns:xlink="http://www.w3.org/1999/xlink" x="0px" y="0px"
	 viewBox="0 0 512 512" style="enable-background:new 0 0 512 512;" xml:space="preserve">
<path d="M452.7,170.2c-11.1-23.1-28.4-40.2-50.8-52.2c-0.1-0.3-0.2-0.6-0.2-0.8c0.3-3.3-0.2-6.6-0.5-9.9
	c-1.9-25.4-11.5-47.5-28.6-66.3c-18.1-20-40.9-31.8-67.2-37.4c-5-1.1-10.2-0.9-15.1-2.7c-1.8-1.1-3.8,0.1-5.7-0.3
	c-1.6,0.1-3.1-0.3-4.7-0.5C228,0,176.1,0,124.1,0c-1.3,0-2.6,0-3.9,0.3c-7.1,1.2-11.6,6-12.8,14.2c-6,38-12,76-18,113.9
	c-10.1,63.9-20.3,127.8-30.2,191.7c-3.9,24.9-8.6,49.6-11.1,74.7c0,2.1,0,4.3,0,6.4c3.6,6.9,9.3,8.7,16.9,8.7
	c28.2-0.3,56.4-0.1,84.6-0.1c0,0,0,0,0,0c0,0,0,0,0,0c-4.6,29.2-9.2,58.4-13.8,87.5c-1.3,7.9,4,14.6,11.9,14.6
	c25.3,0.1,50.7,0.1,76,0c8.6,0,14.2-5.1,15.5-13.5c1.5-9.5,3-18.9,4.5-28.4c5.1-32.6,10.3-65.1,15.4-97.7c1.4-8.7,7.1-13.7,16-13.8
	c14.3,0,28.6,0,43,0c9.1,0,18.3-0.4,27.2-2.4c57.6-12.5,95.5-47,113-103.2C467.1,225,465.6,197,452.7,170.2z M399.7,132.7
	c-0.4,1.1-0.7,2.2-0.9,3.4c-1.1,7.5-3.1,14.8-5.6,22c-9.6,27.6-26,50.3-49.2,68c-18.5,14.1-39.3,23.1-62.1,27.5
	c-1.2,0.4-2.4,0.4-3.6,0.5c-0.5,0-1,0.1-1.6,0.3c-1.2,0.4-2.5,0.4-3.7,0.4c-0.8,0-1.5,0.1-2.3,0.3c-2.4,0.6-4.8,0.3-7.2,0.2
	c-24.9,0-49.8,0-74.7,0c-1.8,0-3.6,0-5.3,0.4c-3.6,0.9-7,2.2-9.1,5.2c0.5-3,1.3-6,1.1-9.2c-0.1-1.3-0.1-2.6,0.6-3.8
	c1.1-3.1,1.5-6.3,1.5-9.6c0-1.2-0.2-2.5,0.5-3.6c0.9-1.8,0.9-3.7,1.1-5.6c-0.1-1.3-0.4-2.6,0.1-3.9c0.1-0.3,0.2-0.6,0.2-1
	c0.1-1.1,0.1-2.3,0.7-3.3c0.9-1.7,0.9-3.6,1.1-5.4c-0.1-1.3-0.4-2.6,0.1-3.8c0.1-0.3,0.2-0.6,0.2-1c0.1-1.1,0.1-2.3,0.7-3.3
	c0.9-1.7,0.9-3.6,1.1-5.4c-0.1-1.3-0.4-2.6,0.1-3.8c0.1-0.3,0.2-0.6,0.2-1c0.1-1.1,0.1-2.3,0.7-3.3c0.9-1.7,0.9-3.6,1.1-5.4
	c-0.1-1.3-0.4-2.6,0.1-3.8c0.1-0.3,0.2-0.6,0.2-1c0.1-1.1,0.1-2.3,0.7-3.3c0.9-1.7,0.9-3.6,1.1-5.4c-0.1-1.3-0.4-2.6,0.1-3.8
	c0.1-0.3,0.2-0.6,0.2-1c0.1-1.1,0.1-2.3,0.7-3.3c0.9-1.7,0.9-3.6,1.1-5.4c-0.1-1.3-0.4-2.6,0.1-3.8c0.1-0.3,0.2-0.6,0.2-1
	c0.1-1.1,0.1-2.3,0.7-3.3c0.9-1.7,0.9-3.6,1.1-5.4c-0.1-1.3-0.4-2.6,0.1-3.8c0.1-0.3,0.2-0.6,0.2-1c0.1-1.1,0.1-2.3,0.7-3.3
	c0.9-1.7,0.9-3.6,1.1-5.4c-0.1-1.3-0.4-2.6,0.1-3.8c0.1-0.3,0.2-0.6,0.2-1c0.1-1.1,0.1-2.3,0.8-3.3c0.9-1.8,0.9-3.8,1.1-5.7
	c-0.4-1.5,0-3,0.7-4.3c3-8.9,6.9-11.8,16.4-12.3c1.5-0.1,3.1,0,4.6,0c41.3,0,82.5,0,123.8,0c1.6-0.2,3.3-0.1,5-0.1
	c1.7,0,3.4-0.2,5.1,0.3c0.5,0.1,1.1,0.2,1.6,0.3c1.4,0.1,2.8,0,4.2,0.5c0.5,0.1,1,0.2,1.6,0.3c1.2,0.1,2.5,0,3.6,0.6
	c10.5,2.7,21.1,5.1,31.1,9.5c2,0.9,3.9,2.3,6.2,2.5c0,0,0.1,0,0.1,0c-0.4,1.4,0,2.8,0.6,4.2c0,0,0,0,0,0c0,1.7,0.2,3.3-0.4,4.9
	c-0.2,0.7-0.3,1.4-0.3,2.2C400.2,130.3,400.3,131.6,399.7,132.7z"/>
</svg>
