<?xml version="1.0" encoding="utf-8"?>
<!-- Generator: Adobe Illustrator 28.0.0, SVG Export Plug-In . SVG Version: 6.00 Build 0)  -->
<svg version="1.1" id="Capa_1" xmlns="http://www.w3.org/2000/svg" xmlns:xlink="http://www.w3.org/1999/xlink" x="0px" y="0px"
	 viewBox="0 0 512 512" style="enable-background:new 0 0 512 512;" xml:space="preserve">
<g>
	<path d="M249.8,433c-49.2-1.2-102.7-9.1-152.1-35.2c-38.7-20.4-71.1-47.9-86.5-89.7c-23.8-64.2-10.1-120,43.2-164.3
		c38-31.6,82.5-49.2,130.5-58C249,74.1,312.4,77.2,374.4,98c37.1,12.5,70.3,31.4,98.2,59.4c56.3,56.5,48.2,144.1,1.1,195.3
		c-35.1,38.2-79.5,58.9-129,70.3C315.4,429.8,285.7,432.8,249.8,433z M256.1,402.7c49.7-0.1,88.6-6.9,133.1-24.7
		c37.3-15,69.9-36.6,93-70.4c12.9-18.9,20.1-39.7,19.4-62.8c-0.1-2.5,1.5-6.9-4-5.5c-32,7.8-63.5,17.1-94.1,29.5
		c-2.4,1-2.7,2.2-2.1,5c4.6,18.6-4.7,31.6-23.8,33.1c-3.3,0.3-5.3,0.6-6.5,4.3c-4.7,14-13.1,20.4-27.6,20.9
		c-3.9,0.1-5.5,1.5-7.1,4.8c-3.9,8.2-11.2,13.5-19.8,14c-7.9,0.5-14,3.3-20.7,6.7c-10.7,5.5-21.8,2-32.3-2.2
		c-2.7-1.1-4.8-2.4-8.2-0.4c-17.3,10.7-30.3,8.4-42.6-7.2c-1.9-2.4-3.2-3.4-6.5-3.2c-10.7,0.7-19.8-3.1-26.1-12.2
		c-1.9-2.8-3.9-3.8-7.3-3.8c-12.4,0.1-21.4-5.9-26.2-17.2c-1.7-4-3.5-5.6-8.1-5.8c-15.1-0.9-25.4-13.1-22.9-27.7
		c1-5.9-0.8-8.1-5.4-10.6c-29.8-16.3-62.6-23-95.1-31.2c-5.4-1.4-4.4,2.2-4.5,5c-1.1,21.6,4.4,41.6,15.4,60
		c17.9,29.9,44.1,50.7,74.6,66.5C149.6,392.8,201.7,402.8,256.1,402.7z M193.6,164c-6.7,1.6-11,2.2-15.1,3.6
		c-16.1,5.3-32.1,4.4-48.3,0.7c-20.4-4.7-40.3-11.1-59.9-18.5c-2.8-1.1-5.2-2.5-8.2,0.1c-22.4,18.7-39.8,40.9-47.5,69.6
		c-1.1,4.2-0.7,6.5,4,7.6c6.1,1.3,12,3.4,18.1,4.9c28.8,7.1,57.4,14.8,82.9,30.6c3.2,2,4.8,0.1,7.1-1.3c9.8-6,20.1-5.6,28.8,1.5
		c2.8,2.3,4.6,3.1,8.4,1.4c13-5.7,24.9-2.8,34.4,8.1c2,2.3,3.6,2.5,6.2,2.2c18.3-2.1,29.7,6.9,31.9,25.2c0.3,2.6,0.2,4.1,3.7,4.7
		c19.7,3.5,29.5,17.9,25.2,37.2c-0.8,3.4-0.5,4.9,2.6,6.1c7.2,2.9,14.4,4.8,22.2,2.4c5.3-1.6,7.8-3.6,2.7-8.7
		c-5.4-5.4-10.3-11.2-15.4-16.9c-1.7-1.9-5-3.9-2.2-6.6c2.6-2.6,5.2,0.3,7,1.9c6.9,6.1,13.6,12.6,20.4,18.9
		c5.2,4.8,15.3,4.5,20.8-0.6c5.6-5.1,5.3-9.4-1.2-16.8c-6.5-7.4-13-14.7-19.6-22c-1.8-2-4.3-4.3-1.7-6.9c2.5-2.5,4.6,0.3,6.2,1.8
		c8.3,7.5,16.9,14.7,24.3,23.1c6.1,7,18.8,6.7,26.2-1c6.7-7,6-13-2.6-21.8c-0.8-0.8-1.5-1.5-2.3-2.3c-8.6-8.7-17.3-17.4-25.8-26.2
		c-1.7-1.8-5.3-3.6-2.5-6.5c2.6-2.8,4.9,0.6,6.9,2c2,1.3,3.8,3.1,5.6,4.8c9.9,9,19.5,18.2,29.7,26.8c7,6,18.3,4.2,24.1-3.1
		c4.8-6,3.4-13-4.2-19.8c-7.1-6.3-14.2-12.7-21.5-18.9c-23.6-20.2-47-40.6-70.9-60.4c-19.8-16.3-30.7-16.5-52-1.8
		c-9,6.1-17.4,13-26.4,19.3c-12.8,9-26.7,8.6-40.5,2.9c-11.5-4.7-13-13.1-4.7-22.2C177.7,181.2,184.9,173.4,193.6,164z M272.3,140.9
		c-26.7,0.2-47.1,6.6-63.6,22.6c-10.3,10-19.8,21-30.1,31.1c-5.7,5.6-2.3,7.7,2.8,9.4c14.1,4.7,26.1-0.1,37.1-8.8
		c6.8-5.4,13.4-11.2,20.5-16.3c20.7-14.6,36.5-14.3,56.7,0.8c5.7,4.2,11.2,8.7,16.6,13.3c25.5,21.8,50.9,43.6,76.2,65.6
		c3,2.6,5.4,3.4,9.4,1.7c31.3-13.4,63.6-23.7,96.8-31.4c4.5-1,5.5-2.3,4.3-7c-6.7-26.5-21.7-47.7-41.2-66.3c-4-3.8-7-4.3-12-2.2
		c-42.7,18.3-85.3,19.6-127.9-0.5C302.1,145.6,285.5,141.5,272.3,140.9z M443.2,143.9C376.5,97.8,303.4,85,226.6,90.3
		c-54.4,3.7-106,18.2-152.8,50.5c22.7,8.8,44.4,14.7,66.5,19.5c10.9,2.3,21.5,1.6,32.2-1.4c8.9-2.5,17.9-4.8,27-6.1
		c5.3-0.8,9.7-2.3,14.1-5.4c18.3-12.9,39.1-16.9,61.1-15.5c19.6,1.2,37.4,8.6,55.2,16.2C367.4,163.9,404.5,160.8,443.2,143.9z
		 M153.3,292.5c0,3.2-0.3,6.1,0,9c1.4,13.5,14.1,21.8,25.6,16.1c5.1-2.5,6-2.1,6.6,3.6c1.1,10.7,14.7,17.9,23.4,12.1
		c6.7-4.5,7.8-2.4,9.4,4.1c2.7,11,14,16.9,24.9,13.8c9.6-2.8,16-13.4,13.7-22.9c-2.8-11.2-13.4-18.4-24-15.4
		c-6.8,1.9-8.9,1.7-6.6-6.2c2.1-7.4,2.4-15.6-5.2-20.7c-7.3-5-15.1-5.8-22.6,0.2c-4.3,3.4-4-0.6-4.7-3.1
		c-3.5-11.4-12.8-15.8-24.2-12.1c-5.5,1.8-9.3,5.8-13,10.3c-4.9-13.2-13.3-18.4-22.6-14.6c-7.7,3.1-11.6,12.8-8.3,20.5
		C129.7,296.8,138.4,298.5,153.3,292.5z"/>
</g>
</svg>
