<?xml version="1.0" encoding="utf-8"?>
<!-- Generator: Adobe Illustrator 28.0.0, SVG Export Plug-In . SVG Version: 6.00 Build 0)  -->
<svg version="1.1" id="Capa_1" xmlns="http://www.w3.org/2000/svg" xmlns:xlink="http://www.w3.org/1999/xlink" x="0px" y="0px"
	 viewBox="0 0 512 512" style="enable-background:new 0 0 512 512;" xml:space="preserve">
<path d="M440.7,292.5c-4.4-16.1-13.3-29.1-27.1-38.7c-10.3-7.1-21.8-11.6-33.9-14.8c-1.1-0.3-2.5-0.3-3.4-1.2
	c0.1-0.3,0.1-0.4,0.2-0.5c1.3-0.7,2.6-1.5,3.9-2.2c18.8-10.6,30.9-26.2,35.1-47.5c2.3-11.5,1.9-23,0.4-34.5
	c-2.9-22-13.4-39.3-31.9-51.7c-11.5-7.7-24.2-12.4-37.5-15.9c-14.9-3.9-30.1-6-45.5-7.3c-3.1-0.3-3.1-0.3-3-3.2c0-0.4,0.1-0.7,0.1-1
	c0.5-23.6,0.9-47.1,1.4-70.7c0.1-3,0-3.1-3-3.2c-1,0-2.1-0.1-3.1-0.1H252c0,0.3,0,0.6,0,0.9c-0.1,8.3-0.1,16.6-0.1,25
	c-0.1,15-0.1,30-0.2,45.1c0,3-0.1,3-2.3,3.1c-11.1,0.3-22.2,0.6-33.3,0.8c-3,0.1-3.1,0-3-3c0-0.4,0.1-0.7,0.1-1
	c0.6-22.9,1.1-45.8,1.7-68.6c0-1,0.1-1.7,0-2.2h-45.7c0,0.7,0,1.5,0,2.6c-0.5,23.1-0.9,46.2-1.4,69.3c-0.1,3.8-0.1,3.9-4,4
	c-9.7,0.2-19.4,0.4-29.1,0.3C114.7,76,94.9,75.6,75,75.3c-3.5-0.1-3.5,0-3.6,3.5c-0.2,6.4-0.3,12.7-0.5,19.1
	c-0.2,8.7-0.4,17.3-0.7,26c-0.1,1.7,0.5,2.4,2.1,2.2c0.5-0.1,0.9,0,1.4,0c10.9,0.1,21.7,0.1,32.6,0.2c14.5,0.1,24.5,10.3,24.5,24.8
	c-0.2,36.5-0.3,73-0.4,109.6c-0.1,32.8-0.3,65.7-0.4,98.5c0,6.7-3.3,11.4-9.1,14.4c-3.2,1.6-6.6,1.9-10.1,1.9
	c-9.9-0.1-19.9-0.2-29.8-0.3c-3.1,0-3.1,0-3.7,3.1c-3,16.6-6,33.2-8.9,49.9c-0.2,1-0.6,2-0.2,3.2c1.1,0.1,2.2,0.2,3.3,0.3
	c5.8,0.2,11.6,0.5,17.3,0.6c18.8,0.5,37.6,1.8,56.5,1.4c4.8-0.1,9.7-0.2,14.6,0.1c2.8,0.2,2.8,0.2,2.8,3c0,0.5,0,0.9,0,1.4
	c-0.3,24-0.7,48.1-1,72.1c0,0.8,0,1.3,0,1.7h47.7v-0.1c0-0.2,0-0.5,0-0.7c0.5-23.6,1-47.1,1.4-70.7c0.1-3,0.1-2.9,3.1-3.2
	c10.8-1.1,21.7-0.8,32.6-0.6c3,0.1,3,0.1,2.9,3.1c-0.3,18-0.7,36.1-1,54.1c-0.1,6-0.3,12-0.3,18v0.2H296c0.9-23.6,1.6-47.2,2.5-70.7
	c0.1-3,0.1-3.1,2.7-3.2c15.2-1.1,30.4-2.8,45.4-5.7c16-3,31.5-7.6,46-15c24.1-12.4,39.7-31.6,46.6-57.8c3.3-12.7,4.6-25.7,4.8-38.8
	C444.2,311.2,443.3,301.8,440.7,292.5z M217.4,230.6c0.1-21.7,0.2-43.5,0.4-65.2c0-8.4,0.1-16.9,0.1-25.3c0-1.4,0.1-2.4,2-2.4
	c14.4,0.6,28.9,0.2,43.3,1.5c11.1,1,22,2.7,32.6,6.3c7.1,2.4,13.6,5.8,19.4,10.5c18.3,14.9,20.2,48-3.5,63.5
	c-7.8,5.1-16.3,8.1-25.1,10.3c-14.1,3.1-28.2,4.2-42.5,4.2c-7.9,0-15.7-0.2-23.6-0.3C217.4,233.8,217.4,233.8,217.4,230.6z
	 M334,366.1c-5.8,4.7-12.4,8.1-19.4,10.6c-4.3,1.6-8.7,3.1-11.4,3.6c-16,3.6-30.4,4.9-44.9,5.4c-13.5,0.5-27,0.2-40.6,0.2
	c-2.5,0-2.6,0-2.6-2.8c0-12.5,0-25,0-37.4c0.1-20.2,0.1-40.4,0.2-60.7c0-0.6,0-1.1,0-1.7c0-1.3,0.5-1.8,1.9-1.8
	c25.8-0.3,51.6-1.3,77.1,3.2c10.8,1.9,21.2,4.7,30.9,9.9c8,4.3,14.7,9.9,19.2,18C354,330.2,349.5,353.5,334,366.1z"/>
</svg>
