<?xml version="1.0" encoding="utf-8"?>
<!-- Generator: Adobe Illustrator 28.0.0, SVG Export Plug-In . SVG Version: 6.00 Build 0)  -->
<svg version="1.1" id="Capa_1" xmlns="http://www.w3.org/2000/svg" xmlns:xlink="http://www.w3.org/1999/xlink" x="0px" y="0px"
	 viewBox="0 0 512 512" style="enable-background:new 0 0 512 512;" xml:space="preserve">
<g>
	<path d="M300.1,289.7c0-3,0.6-4,3.9-4c22.4,0.2,44.7,0.1,67.1,0.1c2.4,0,3.3-0.6,3.7-3.1c4.2-28.3,8.6-56.5,12.9-84.8
		c0.6-4,0.6-4-3.7-4c-26.9,0-53.9,0-80.8,0.1c-2.4,0-3.2-0.6-3.1-3.1c0.1-19.2,0-38.5,0.1-57.7c0-3.2,0.3-6.4,0.8-9.6
		c2.7-19.1,14.5-32.2,32.9-36.8c5.2-1.3,10.4-2,15.7-2c13.1,0,26.2-0.1,39.3,0c2.4,0,3.1-0.6,3.1-3.1c-0.1-24.1-0.1-48.3,0-72.4
		c0-2.2-0.6-3-2.8-3.3c-17.4-2.6-34.9-4.5-52.4-5.3c-15.5-0.8-31-0.7-46.3,2.4c-37.6,7.7-65,28.1-79.8,64.1
		c-7.2,17.5-9.9,35.8-10,54.6c-0.1,23-0.1,46,0,69c0,2.8-0.7,3.5-3.5,3.5c-24.6-0.1-49.3,0-73.9-0.1c-2.6,0-3.5,0.5-3.5,3.4
		c0.1,28.4,0.1,56.8,0,85.2c0,2.7,0.6,3.5,3.4,3.5c24.2-0.1,48.5-0.1,72.7-0.1c5.4,0,4.7-0.7,4.7,4.9c0,71,0,142.1,0,213.1
		c0,1.5,0.1,2.9,0.2,4.4c33,5.2,66.1,5.2,99.1,0c0-1.3,0.1-2.7,0.1-4C300.2,432.6,300.2,361.1,300.1,289.7z"/>
</g>
</svg>
