<?xml version="1.0" encoding="utf-8"?>
<!-- Generator: Adobe Illustrator 28.0.0, SVG Export Plug-In . SVG Version: 6.00 Build 0)  -->
<svg version="1.1" id="Capa_1" xmlns="http://www.w3.org/2000/svg" xmlns:xlink="http://www.w3.org/1999/xlink" x="0px" y="0px"
	 viewBox="0 0 512 512" style="enable-background:new 0 0 512 512;" xml:space="preserve">
<style type="text/css">
	.st0{fill:#444444;}
	.st1{fill:#595959;}
	.st2{fill:#565656;}
	.st3{fill:#666666;}
	.st4{fill:#828282;}
	.st5{fill:#383838;}
	.st6{fill:#2D2D2D;}
</style>
<g>
	<polygon class="st0" points="384,189.4 256,275.6 256,500.4 384,414.2 384,189.4 	"/>
	<polygon class="st1" points="128,189.4 128,189.4 128,414.2 256,500.4 256,275.6 	"/>
	<polygon class="st2" points="256,275.6 384,189.4 256,103.3 128,189.4 	"/>
	<polygon class="st3" points="128,189.4 0,103.3 0,328.1 128,414.2 128,189.4 	"/>
	<polygon class="st4" points="0,103.3 128,189.4 256,103.3 128,11.6 	"/>
	<polygon class="st5" points="512,103.3 384,189.4 384,189.4 384,414.2 512,328.1 	"/>
	<polygon class="st6" points="512,103.3 384,11.6 256,103.3 384,189.4 	"/>
</g>
</svg>
