<?xml version="1.0" encoding="utf-8"?>
<!-- Generator: Adobe Illustrator 28.0.0, SVG Export Plug-In . SVG Version: 6.00 Build 0)  -->
<svg version="1.1" id="Capa_1" xmlns="http://www.w3.org/2000/svg" xmlns:xlink="http://www.w3.org/1999/xlink" x="0px" y="0px"
	 viewBox="0 0 512 512" style="enable-background:new 0 0 512 512;" xml:space="preserve">
<g>
	<path d="M479.9,256.6c0,38-0.2,76,0.2,113.9c0.1,9.9-3.4,16.2-11.9,21c-66.9,38.5-133.7,77.2-200.4,116.1
		c-8.1,4.7-15.1,4.9-23.2,0.2c-67-39-134.1-77.9-201.3-116.6c-7.7-4.4-11.3-10.3-11.3-19.4c0.2-77.3,0.2-154.6,0-231.8
		c0-9.1,3.7-14.9,11.4-19.3C110.5,82,177.6,43.2,244.6,4.2c8.2-4.8,15.2-4.4,23.2,0.3c66.4,38.7,132.9,77.3,199.5,115.6
		c8.8,5,12.8,11.3,12.6,21.6C479.7,180,479.9,218.3,479.9,256.6z M77.8,135.8c2.9,1.9,4.2,2.9,5.6,3.7
		c55.4,31.8,110.8,63.6,166.1,95.6c5.2,3,8.7,2.5,13.6-0.3c54.7-31.6,109.5-63.1,164.3-94.6c1.9-1.1,3.7-2.4,6.4-4.2
		c-3.2-2.1-5.5-3.8-8-5.2C371.9,99.6,318,68.5,264.3,37.1c-6.4-3.8-10.8-3.4-17,0.3c-43.9,25.8-88,51.2-132,76.7
		C103.2,121,91.2,128,77.8,135.8z M240.3,470.5c0.3-3.5,0.6-5.2,0.6-6.8c0-64-0.1-127.9,0.2-191.9c0-6.8-3.7-9.1-8.5-11.9
		c-53.7-30.8-107.4-61.6-161.1-92.4c-2.7-1.6-5.6-2.9-8.8-4.6c0,62.6,0,124,0,186.5c4.4-2.4,7.9-4.2,11.3-6.1
		c36.1-20.7,72.2-41.4,108.3-62c2.6-1.5,5.1-3.3,7.9-4.2c7.4-2.6,14.1-1.2,18.3,5.8c4.3,7.2,3.2,14.1-3.5,19.6
		c-2.5,2.1-5.6,3.6-8.4,5.3c-36.4,20.9-72.8,41.7-109.1,62.6c-2.9,1.7-5.8,3.6-9.7,6.1C132.5,408.1,185.7,438.9,240.3,470.5z
		 M449.4,162.9c-3.5,1.8-6.5,3.2-9.2,4.8c-53.4,30.6-106.7,61.5-160.3,91.8c-6.8,3.8-9.1,8-9,15.6c0.3,61.3,0.2,122.6,0.2,183.9
		c0,3.4,0.4,6.8,0.7,11.5c54.9-31.8,108.2-62.7,162.9-94.4c-15.6-9-29.4-16.9-43.2-24.8c-26.8-15.4-53.7-30.7-80.5-46.3
		c-11-6.4-13.1-18.4-4.7-25.5c7-5.9,14-3.8,21.2,0.4c37.2,21.5,74.5,42.7,111.7,64.1c3.1,1.8,6.3,3.3,10.3,5.4
		C449.4,286.8,449.4,225.4,449.4,162.9z"/>
	<path d="M30.1,481.9c14.6,0,27.9-0.1,41.2,0c11.8,0.1,18.6,5.4,18.7,14.7c0.2,9.3-6.7,15.2-18.2,15.3c-18,0.1-36,0.2-53.9,0
		c-12.2-0.1-17.7-5.6-17.8-17.7c-0.2-18.6-0.2-37.3,0-55.9c0.1-10.7,6.3-17.4,15.2-17.2c9,0.2,14.6,6.8,14.7,17.7
		C30.2,452.6,30.1,466.6,30.1,481.9z"/>
	<path d="M481.9,481.9c0-15.5-0.1-29.4,0-43.4c0.1-10.8,5.9-17.5,14.9-17.5c9,0,15,6.7,15.1,17.4c0.2,18.6,0.2,37.3,0,55.9
		c-0.1,12.1-5.7,17.5-18,17.6c-18,0.2-36,0.1-53.9,0c-11.4-0.1-18.3-6.2-18-15.5c0.3-8.9,6.9-14.4,17.9-14.5
		C453.5,481.8,467.1,481.9,481.9,481.9z"/>
	<path d="M30.1,30.1c0,15.1,0.1,29.1,0,43C30,84.2,24.6,90.6,15.5,90.8C6,91,0.2,84.4,0.1,72.8C0,54.5-0.1,36.2,0.1,17.9
		C0.2,5.7,5.6,0.2,17.8,0.1C36.1,0,54.4,0,72.7,0.1C83.4,0.2,90.1,6.3,90,15.2c-0.1,8.9-6.8,14.7-17.6,14.8
		C58.8,30.2,45.2,30.1,30.1,30.1z"/>
	<path d="M481.9,30.1c-14.3,0-27.6,0.1-40.8,0c-12.2-0.1-19.3-5.8-19.1-15.3c0.2-9.2,7-14.6,18.8-14.7C458.4,0,476,0,493.7,0.1
		c12.8,0.1,18.1,5.4,18.2,18.3c0.1,18.3,0.1,36.6,0,54.9c-0.1,10.9-5.8,17.4-14.9,17.5c-9.1,0.1-15-6.4-15.1-17.2
		C481.8,59.7,481.9,45.7,481.9,30.1z"/>
</g>
</svg>
