<?xml version="1.0" encoding="utf-8"?>
<!-- Generator: Adobe Illustrator 28.0.0, SVG Export Plug-In . SVG Version: 6.00 Build 0)  -->
<svg version="1.1" id="Capa_1" xmlns="http://www.w3.org/2000/svg" xmlns:xlink="http://www.w3.org/1999/xlink" x="0px" y="0px"
	 viewBox="0 0 575 512" style="enable-background:new 0 0 575 512;" xml:space="preserve">
<style type="text/css">
	.st0{fill:#9D9DA0;}
</style>
<g>
	<path class="st0" d="M268.8,421.8c0-17.9,0.1-35.7,0-53.6c-0.1-10.2,0.6-20.6-0.7-30.6c-3.2-23.6-17.2-40.4-36.5-53
		c-6.7-4.4-13.7-9.1-22.1-9.7c-24.8-1.6-49.7-3-74.6-4.3c-18.1-1-36.3-1.8-54.4-2.6c-21.6-1-43.2-1.9-64.8-2.7
		c-3.3-0.1-6.9,0-8.5,3.6c-1.5,3.6,1.1,6.2,3.1,8.8c0.5,0.7,1.2,1.3,1.8,1.9c8.3,7.8,16.6,15.7,24.9,23.5
		c36.2,34.3,72.4,68.6,108.6,102.9c15.1,14.3,30.1,28.6,45.3,42.9c1,0.9,1.8,3.1,3.7,2c1.4-0.8,0.7-2.5,0.7-3.9
		c0-14.9-0.1-29.8,0-44.7c0-3.2-1.1-5.5-3.4-7.7c-20.3-19.2-40.4-38.4-60.6-57.6c-9-8.6-18.1-17.1-27.1-25.7c-1.1-1-2.8-2.1-2.1-3.8
		c0.8-2.1,2.9-1.4,4.6-1.3c2,0.2,4.1,0.8,6.1,0.9c21.6,1.4,43,3.9,64.5,6.1c19.4,1.9,34.6,15.3,38.7,34.3
		c2.7,12.5,1.6,25.1,1.3,37.7c-0.5,27.6-0.3,55.1-0.5,82.7c0,4,1.2,6.9,4.1,9.6c10.3,9.6,20.3,19.3,30.6,28.9c1.9,1.8,4,3.4,6.2,4.6
		c4.2,2.2,7.7,0.9,10.2-3.1c1.4-2.2,1.4-4.6,1.4-7c0-26.4,0-52.7,0-79.1C268.9,421.8,268.9,421.8,268.8,421.8z"/>
	<path class="st0" d="M564.8,232c-0.2-0.2-0.4-0.3-0.5-0.5c-0.5-0.5-1-1-1.5-1.5c-23.5-22.9-49.1-43.5-73.6-65.3
		c-15.4-13.7-31.4-26.8-47-40.2c-13.2-11.3-26.2-22.9-39.1-34.7c-11.2-10.2-22.8-20-34.2-30.1c-8.5-7.6-17.1-15.1-25.4-23
		c-8.2-7.9-17.8-14.9-21.4-26.2c-0.2-0.6-0.3-1.2-0.5-1.8c-0.2-0.7-0.3-1.5-0.5-2.2c-0.1-0.7-0.2-1.3-0.3-2
		c-0.1-0.7-0.5-1.3-0.8-1.9c-1.5-2.5-3.4-3.1-6.1-1.7C306,5,302.3,21.2,308,28c0.3,0.3,0.6,0.7,0.9,1c0.5,0.8,1,1.6,1.6,2.3
		c7.3,9,14.5,18.1,22,26.9c7.2,8.3,14.5,16.6,21.7,24.8c17,20,34.2,39.9,51.1,59.9c1.1,1.7,2.2,3.3,3.3,5.1
		c2.7,4.5,4.6,9.6,4.6,15.1c-0.1,2-0.5,4-1.1,6.1c-0.1,0.3-0.1,0.5-0.2,0.8c-2.2,5.4-7.2,9.6-14.1,11.9c-3.6,1.2-7.3,1.9-11,2.2
		c-0.5,0-1,0-1.6,0c-25.3,0.5-50.6,0-75.9-0.1c-7.3,0-14.5,0-21.8,0.1c-7.3,0-14.5-0.1-21.8-0.1c-25.3,0.1-50.6,0.6-75.9,0.1
		c-0.5,0-1.1,0-1.6,0c-3.8-0.3-7.5-1-11-2.2c-9.5-3.1-15.2-10-15.4-18.2c-0.1-5.7,1.8-11,4.6-15.7c9.7-16.1,23.5-28.9,35.5-43.1
		c13.3-15.8,27.2-31,40.6-46.7c7.5-8.8,14.8-17.9,22-26.9c7.3-9.1,6.6-20.5-1.6-29.1c-3.4-3.5-6.5-2.7-8.2,1.8
		c-0.5,1.4-0.9,3-1.2,4.5c-1.4,6.2-4,11.9-8.6,16.3c-11.7,11.2-23.4,22.5-35.6,33.3c-29,25.5-58.2,50.8-87.3,76
		c-20.6,17.9-41.2,35.9-62.2,53.5c-17,14.2-33.4,29.1-49.5,44.3c-2.7,2.6-4.6,5.4-3.1,9.1c1.5,3.6,4.8,3.5,8,3.4
		c90.8-0.1,181.6-0.1,272.4-0.2c78.4,0.1,156.9,0.1,235.3,0.2c0,0,0,0,0,0c10.9,0,21.8,0,32.6,0c1.5,0,3,0,4.5,0
		c2.3,0,4.6,0,6.2-1.2c1.6-1,2.4-2.6,2.3-4.5C568.6,236.2,566.9,234,564.8,232z"/>
	<path class="st0" d="M568.1,269.5c-0.4-1.8-1.6-3.2-3.6-3.8c-0.1,0-0.1-0.1-0.2-0.1c-0.1,0-0.2,0-0.3-0.1c-0.2,0-0.4-0.1-0.6-0.1
		c0,0-0.1,0-0.1,0c-0.8-0.1-1.6-0.2-2.5-0.2c-2.6-0.1-5.2,0-7.7,0c0,0.1,0,0.2,0,0.3c-7.7,0.3-15.3,0.6-23,0.9c-1.8,0-3.7,0-5.5,0.1
		c-1.9,0-3.8,0.2-5.7,0.4c-8.1,0.3-16.1,0.7-24.2,1c-18.1,0.8-36.3,1.6-54.4,2.6c-13.3,0.7-26.5,1.4-39.8,2.2
		c-7.5,0.3-15.1,0.5-22.6,0.9c-3.6,0.2-7.2,0.5-10.8,1.1c-0.5,0-0.9,0.1-1.4,0.1c-7.3,0.5-13.6,4.2-19.5,8
		c-3.8,2.2-7.4,4.7-10.7,7.5c-15.1,11.8-25.6,27.1-28.4,47.2c-1.4,10.1-0.7,20.4-0.7,30.6c-0.1,17.9,0,35.7,0,53.6
		c-0.1,0-0.2,0-0.3,0c0,26.4,0,52.7,0,79.1c0,2.4,0,4.8,1.4,7c2.5,4,6,5.3,10.2,3.1c2.3-1.2,4.4-2.8,6.2-4.6
		c2.3-2.2,4.6-4.4,6.9-6.5c3.4-3.2,6.8-6.4,10.1-9.6c4.5-4.3,9-8.5,13.5-12.8c2.9-2.7,4.2-5.6,4.1-9.6c-0.2-24.8-0.1-49.7-0.4-74.5
		c0-10.1,0-20.2-0.1-30.3c0-8.4,1-16.4,4.3-24.3c6.2-14.6,20.7-24,35.7-25.6c12.2-1.3,24.4-2.5,36.6-3.8c2-0.2,4-0.4,6.1-0.6
		c7.3-0.7,14.6-1.3,21.9-1.8c2-0.1,4.1-0.8,6.1-0.9c1.6-0.1,3.8-0.8,4.6,1.3c0.7,1.8-1.1,2.8-2.1,3.8c-9,8.6-18.1,17.2-27.1,25.7
		c-20.2,19.2-40.4,38.4-60.6,57.6c-2.3,2.2-3.4,4.5-3.4,7.7c0.1,14.9,0,29.8,0,44.7c0,1.2-0.6,2.8,0.4,3.6c0,0.2,0,0.3,0,0.5
		c0.2-0.1,0.3-0.1,0.5-0.2c1.7,0.8,2.5-1.2,3.4-2.2c1.6-1.5,3.2-3,4.8-4.5c8.6-7.9,17.3-15.8,25.6-24.1c1.3-1.3,2.5-2.5,3.8-3.8
		c3.7-3.5,7.4-7,11.1-10.5c36.2-34.3,72.4-68.6,108.6-102.9c4.8-4.6,9.6-9.1,14.4-13.6c3.4-3,6.7-6,10.1-9.1
		c1.8-1.6,3.3-3.5,4.4-5.7C568,273.1,568.6,271.5,568.1,269.5z"/>
</g>
</svg>
