<?xml version="1.0" encoding="utf-8"?>
<!-- Generator: Adobe Illustrator 28.0.0, SVG Export Plug-In . SVG Version: 6.00 Build 0)  -->
<svg version="1.1" id="Capa_1" xmlns="http://www.w3.org/2000/svg" xmlns:xlink="http://www.w3.org/1999/xlink" x="0px" y="0px"
	 viewBox="0 0 512 512" style="enable-background:new 0 0 512 512;" xml:space="preserve">
<g>
	<path d="M299.8,268.7c-2.1,3.5-3.4,6.9-5.7,9.5c-4.2,4.8-8.7,9.2-13.4,13.5c-3.5,3.2-5.1,5.9-2.9,11.1c2.3,5.1,4.9,7.1,10.4,6.8
		c7-0.4,14-0.2,21,0c6.7,0.2,10.6,4.1,10.7,10.8c0.2,21,0.2,42,0,63c-0.1,7.2-4.2,11-11.4,11.1c-6.3,0.1-12.7,0.2-19,0
		c-5.3-0.2-9.1,0.5-11.7,6.5c-2.7,6.3,0.4,9.1,4.1,12.6c4.1,3.9,8.1,8,12.1,12c6.4,6.4,6.2,12.8-0.2,19.1
		c-13.7,13.6-27.2,27.4-41,40.9c-7.1,7-12.4,6.8-19.7-0.2c-4.1-3.9-8.1-7.9-12-12c-3.3-3.5-6-6-11.8-3.6c-6,2.4-6.9,6-6.7,11.5
		c0.3,6.3,0.1,12.7,0,19c-0.1,7.1-3.7,11.6-10.9,11.6c-21,0.2-42,0.2-63,0c-7.2-0.1-10.9-4.2-11.1-11.4c-0.1-6.3-0.2-12.7,0-19
		c0.2-5.3-0.5-9-6.5-11.6c-6.4-2.8-9.1,0.5-12.5,4.1c-3.7,3.9-7.4,7.7-11.3,11.3c-7.7,7.3-12.8,7.3-20.5-0.3
		c-13.3-13.1-26.5-26.3-39.6-39.6c-7.9-8-7.8-13,0.2-21.2c3.7-3.8,7.5-7.6,11.4-11.3c3.5-3.3,5.9-6,3.5-11.8c-2.5-5.9-6-7-11.5-6.7
		c-6.3,0.3-12.7,0.1-19,0c-7.1-0.1-11.5-3.7-11.6-11c-0.2-21-0.2-42,0-63c0.1-7.2,4.3-10.9,11.5-11c5.7-0.1,11.3,0,17-0.1
		c5.5-0.1,10.6,1.1,13.7-6.4c2.8-7.1-1.4-9.6-5-13.2c-3.5-3.6-7.1-7-10.6-10.6c-7.3-7.7-7.3-12.8,0.3-20.5
		c13.1-13.3,26.3-26.5,39.6-39.6c8-7.9,13.1-7.7,21.2,0.3c3.8,3.7,7.6,7.5,11.2,11.4c3.3,3.5,6,6,11.8,3.5c5.9-2.5,7-6,6.7-11.5
		c-0.3-6.3-0.1-12.7,0-19c0.1-7.1,3.7-11.5,10.9-11.6c21-0.2,42-0.2,63,0c7.2,0.1,10.9,4.3,11.1,11.4c0.1,6.7,0.4,13.3,0,20
		c-0.3,5.4,1.3,8.3,6.6,10.6c5.6,2.4,8.5,0.3,11.9-3.3c4.1-4.4,8.5-8.5,12.7-12.7c6.4-6.5,12.7-6.2,19.1,0.2
		c13.6,13.7,27.4,27.3,40.9,41.1C296,261.7,297.5,265.1,299.8,268.7z M159.8,415.9c35.3,0.1,64.2-28.7,64.1-64
		c-0.1-34.9-28.4-63.6-63.2-63.9c-35.4-0.3-64.4,28.3-64.6,63.5C95.9,386.9,124.5,415.8,159.8,415.9z"/>
	<path d="M316.5,17.9c4.5,3.5,8.8,6,11.9,9.5c4.2,4.7,7.9,5.8,13.7,2.7c5.2-2.8,10.6-3.5,10.1-12.1C351.4,2,354.1,0,370.7,0
		c10.3,0,20.7-0.1,31,0c10.8,0.1,14.1,3.5,14.3,14.4c0.2,11.3,4,16.2,14.9,17.3c2.7,0.3,6.3-2.6,8.7-4.9c10.4-9.8,14.2-9.9,24.1-0.1
		c7.8,7.7,15.6,15.5,23.3,23.3c7.5,7.7,7.3,12.5-0.2,20.4c-7.6,8-8.5,14.7-1.6,22.8c1.8,2.1,6.4,2.5,9.7,2.6
		c14.4,0.4,17,2.8,17,16.9c0,11,0.1,22,0,33c-0.1,10.8-3.6,14.1-14.5,14.3c-11.2,0.2-16.3,4.1-17.3,14.9c-0.2,2.8,2.7,6.3,5,8.7
		c9.8,10.4,10,14.1,0.1,24c-7.7,7.8-15.5,15.6-23.3,23.3c-7.7,7.5-12.5,7.4-20.4-0.2c-8-7.7-14.6-8.5-22.8-1.6
		c-2.1,1.8-2.5,6.4-2.6,9.7c-0.4,14.4-2.8,17-16.9,17c-11,0-22,0.1-33,0c-10.8-0.1-14.1-3.5-14.3-14.5c-0.2-11.3-4.1-16.3-14.9-17.3
		c-2.8-0.3-6.3,2.7-8.7,5c-10.4,9.8-14.2,9.9-24.1,0.1c-7.8-7.7-15.6-15.5-23.3-23.3c-7.5-7.7-7.3-12.5,0.2-20.4
		c7.6-8,8.5-14.7,1.6-22.8c-1.8-2.1-6.4-2.5-9.7-2.5c-14.4-0.4-16.9-2.8-17-16.9c0-11-0.1-22,0-33c0.1-10.8,3.5-14,14.5-14.3
		c11.2-0.2,16.3-4.2,17.3-15c0.3-2.8-2.7-6.3-5-8.7c-9.9-10.5-10-14-0.1-24c7.8-7.8,15.4-15.7,23.4-23.3
		C308.8,22.5,312.3,20.7,316.5,17.9z M384.4,74.7c-29.1-0.3-53.7,24-53.8,53.2c-0.1,28.8,23.5,52.9,52.4,53.5
		c29.1,0.6,53.6-23.2,54.3-52.7C437.9,99.7,413.7,75,384.4,74.7z"/>
</g>
</svg>
