<?xml version="1.0" encoding="utf-8"?>
<!-- Generator: Adobe Illustrator 27.1.1, SVG Export Plug-In . SVG Version: 6.00 Build 0)  -->
<svg version="1.1" id="Capa_1" xmlns="http://www.w3.org/2000/svg" xmlns:xlink="http://www.w3.org/1999/xlink" x="0px" y="0px"
	 viewBox="0 0 512 512" style="enable-background:new 0 0 512 512;" xml:space="preserve">
<style type="text/css">
	.st0{display:none;}
	.st1{display:inline;}
</style>
<path class="st0" d="M180.3,474.4V37.9h18.5V18.8h18.8V7.1h19.1c0-2.7,0-4.6,0.5-7.1h56.7v14.2h18.8V30h18.8v463.2h-13.1
	c0,2.5-0.3,4.1-0.5,6.3h-11.2V512h-87.6v-11.2h-18v-11.7h-11.5v-14.7c-3.5,0-6.3-0.3-9.5-0.5L180.3,474.4z"/>
<g class="st0">
	<path class="st1" d="M144.2,280.5c-4.6-2.9-9.6-5.2-14.4-7.6c-6.5-3.2-12.9-6.8-19.6-9.3c-11.9-4.5-27.1,1.8-32.9,13.2
		c-6,11.8-12,23.6-18,35.5c-10.3,20.5-20.6,41-31,61.5c-5.8,11.4-4.6,23.7,3.5,32.8c0.1,0.2,0.3,0.3,0.5,0.5c2.1,2.2,4.6,4,7.3,5.4
		c6.9,3.5,22.2,11.3,26.8,13.7c10.5,5.5,23.8,3.4,32.3-4.8c4-3.9,6.2-8.9,8.7-13.7c6.9-13.5,13.7-27,20.6-40.5
		c8.5-16.8,16.9-33.8,25.5-50.6C159.8,304.3,155.8,287.8,144.2,280.5z"/>
	<path class="st1" d="M371.8,293.6c-9.2-4.5-18.4-9.2-27.6-13.8c-15.7-8-31.4-16-47.1-23.9c-17.1-8.7-34.3-17.2-51.4-25.9
		c-11.7-5.9-23.3-11.8-35-17.6c-4.5-2.2-9.7-0.2-12,4.3c-1.1,2.1-2.2,4.1-3.3,6.1c-0.5-0.1-0.8,0-1.1-0.1c-17.8-9-35.5-18.1-53.4-27
		c-4.6-2.3-9.3-4.6-14.2-6c-8-2.2-17,1.6-21.6,8.4c-5.2,7.7-5.5,15.8-1,23.9c2.9,5.2,7.9,7.8,12.9,10.3c17.9,9,35.8,17.9,53.7,27
		c19.1,9.6,38.1,19.3,57.2,29c17.2,8.7,34.5,17.3,51.6,26.1c11.2,5.7,23.9,2.1,29.9-9c3.3-6.1,6.3-12.3,9.5-18.6
		c15.2,7.7,30,15.3,44.9,22.8c5.1,2.6,10.5,1.1,12.7-3.5C379.1,301.2,377.1,296.3,371.8,293.6z"/>
	<path class="st1" d="M497.5,178.2c1.3-3-5.1-10.7-5.8-11.4c-1.3-1.3-2.8-2.3-4.4-3.1c-12.1-6.4-24.2-12.7-36.4-19
		c-6.1-3.1-11.8-7.1-18.9-7.9c-10-1.2-21.1,3.4-25.8,12.9c-8.8,17.6-17.8,35.2-26.8,52.7c-9.1,17.8-18.2,35.6-27.2,53.5
		c-1.3,2.6-3.1,5.4-3.4,8.2c-0.7,6.6,3.8,10.4,8.9,13.1c8.3,4.6,16.8,8.7,25.2,13c4.5,2.3,9,4.4,14.2,4.6c4.9,0.2,9.1-0.9,12.2-5.1
		c4.6-6.1,9.4-12,14.1-18c2.4-3,4.7-6.1,7.2-9.3c-1.1-0.6-1.8-1.2-2.6-1.6c-13.6-6.9-18.9-25.4-11-38.5
		c11.2-18.8,36.7-19.1,48.5-0.5c0.8,1.3,1.2,1.6,2.3,0.4c8.9-9.7,18.1-19.3,26.7-29.3C497.5,189.2,497.4,178.5,497.5,178.2z"/>
	<path class="st1" d="M300,115.9c-8.5-4.2-17-8.4-25.4-12.9c-8-4.2-16.3-2.7-20.9,3c-2.5,3.1-4.1,6.8-5.9,10.4
		c-11.8,23.3-23.6,46.6-35.4,70c-4.3,8.5-1.5,17.5,7,22c7.1,3.7,14.2,7.4,21.4,10.9c4,2,7.9,4.7,12.7,4.5c0.1,0.2,5.9-1.1,8.5-2.4
		c5-2.4,6.7-7.5,8.9-12c12-23.7,23.9-47.4,35.9-71.1C311.2,129.9,308.2,120,300,115.9z"/>
	<path class="st1" d="M290.5,244.2c8.9,4.5,17.9,9,26.8,13.6c9,4.6,18.5,1.8,22.9-7c13-25.8,26.1-51.7,39.1-77.6
		c3.2-6.4,0.9-15.7-5.1-19.4c-4.9-3-28.3-14.5-31.5-16.2c-0.2-0.1-0.5-0.2-0.8-0.3c-8-2-15.7,1.8-19.3,9.2
		c-4.5,9.1-9.1,18.2-13.6,27.3c-8.4,16.7-16.9,33.4-25.3,50.1C280,230.9,283.3,240.6,290.5,244.2z"/>
	<path class="st1" d="M216.6,66.6c5.5,2.9,11.1,5.6,16.6,8.4c18,9.1,35.9,18.3,53.9,27.4c17.3,8.8,34.7,17.6,52.1,26.3
		c3.3,1.7,28.4,14.4,32.3,16.2c4.3,2,8.5,4.4,13.1,5.6c6.2,1.6,12.4-2.2,14.8-8.2c2.2-5.6,0.1-13.1-5-16.2
		c-4.1-2.5-19.9-10.1-23-11.7c-12.3-6.4-24.8-12.5-37.2-18.8c-15.7-8-31.4-16-47.2-24c-16.1-8.1-32.2-16.2-48.4-24.3
		c-4.2-2.1-8.3-4.3-12.8-5.7c-6-1.9-13.2,2.1-15.4,7.9C208,56.2,210.5,63.3,216.6,66.6z"/>
	<path class="st1" d="M154.3,196.2c6.4,3.2,12.8,6.4,19.2,9.6c1.3,0.7,1.8,0.5,2.4-0.9c6.9-13.8,13.9-27.5,20.8-41.3
		c1.5-2.9,0.8-5.5-2-7.2c-1.1-0.7-2.3-1.3-3.8-2.1c7-13.8,13.9-27.4,20.7-40.9c5.4-10.7,10.8-21.4,16.3-32.1c0.7-1.3,0.7-2-0.8-2.8
		c-3.6-1.7-7.2-3.7-10.8-5.5c-1.2-0.6-2-0.9-2.9,0.9c-9.6,19.2-19.4,38.3-29.1,57.4c-10.4,20.5-20.7,41.1-31.1,61.6
		C152.4,194.7,152.8,195.4,154.3,196.2z"/>
	<path class="st1" d="M284.4,63.2c4.2,1.8,8.2,3.9,12.3,5.9c5,2.4,10,4.8,15.2,7.3c2-7.4,3.9-14.3,5.8-21.2
		c2.9-10.6,6-21.2,8.8-31.8C329,14,323.4,4,314.3,0.9c-7.6-2.6-14.4,0.6-16.9,8.2c-1.9,5.9-3.4,11.9-5,17.8c-3.1,11-6.2,22-9.3,33.1
		C282.5,61.5,282.7,62.5,284.4,63.2z"/>
	<path class="st1" d="M441.2,213.3c-12.6-0.1-22.9,10.3-22.8,23c0.1,12.6,10.2,22.7,22.7,22.7c12.4,0.1,23.2-10.6,22.7-22.9
		C464.2,223.9,454.1,213.5,441.2,213.3z"/>
	<path class="st1" d="M14.3,511.6c0.3,0.1,0.6,0.2,0.9,0.4c15.4-26.3,30.8-52.5,46.4-79.2c-8-4-15.8-8-23.8-12
		C29.8,451.4,22.1,481.5,14.3,511.6z"/>
	<path class="st1" d="M150.1,255.8c0.2-0.3-0.3-1.3-0.7-1.5c-6.6-3.4-13.3-6.7-19.9-10c-0.5-0.3-1.9,0.1-2.1,0.6
		c-2.9,5.6-5.7,11.2-8.7,17.1c7.6,3.8,14.9,7.5,22.6,11.4C144.3,267.4,147.2,261.6,150.1,255.8z"/>
</g>
<path class="st0" d="M291.5,50.2c54.3,13.6,92.7,57.1,93.7,115.7c0,2.8-2.3,5.4-5.9,5.4h-66c-2.8,0-5.9-2.3-5.9-5.4
	c-1.3-29.4-24.1-43.8-51.2-43.8c-28.9,0-52.5,16.6-52.5,52c0,30,25.3,46.1,52.5,46.1c2.8,0,31.7,0,61.4,13.6
	c44.8,21.2,69.1,63.7,69.1,112.6c0,66-42.5,106.8-95,119v42.5c0,1.8-2.3,4.1-5.9,4.1h-56.1c-3.6,0-5.9-2.3-5.9-4.1v-42.5
	c-56.6-11.3-98-51.5-98.6-118c0-2.3,2.3-4.1,5.9-4.1h66.6c2.8,0,5.9,1.8,5.9,4.1c1.3,30.7,25.3,45.3,52.5,45.3
	c27.1,0,52.5-17.7,52.5-46.6c0-31.2-28.9-50.7-52.5-52c-3.6,0-32.5,0-62.5-13.6c-43.8-20.7-68.4-57.9-68.4-106.8
	c0-66.6,44.3-111.4,98.6-123.9V4.6c0-2.3,2.3-4.6,5.9-4.6h56.1c3.6,0,5.9,2.3,5.9,4.6v45.3L291.5,50.2z"/>
<path class="st0" d="M298.4,478.6c3.1-8.2,7-16.2,8.8-24.7c0.8-3.6-2.3-8.2-3.6-11.8c-13.9,11.6-27,22.9-40.7,33.5
	c-4.9,3.9-11.1,6.2-17.3,8.2c-2.1,0.8-5.7-0.3-8-1.5c-7.5-4.4-14.9-8.8-21.6-14.2c-8.5-7-16.5-14.7-25.2-22.9c-2.3,5.7-10,8-9,15.5
	c0.5,4.1,2.3,8,3.3,12.1c0.8,2.8,1.8,5.4,2.3,8.2c0.5,2.8-0.5,4.9-3.3,6.2c-12.6,5.9-25.2,11.8-37.6,18c-3.6,1.8-7,3.9-10.3,5.9
	c-2.8,1.8-5.2,1-7-1.3c-4.9-6.4-10.3-12.9-14.2-19.8c-8-14.2-15.7-28.6-22.4-43.5c-7.2-15.7-13.4-31.7-19.3-47.6
	c-1.8-5.2-1.8-11.6-1.3-17c0.3-2.3,4.4-4.6,7.5-5.9c12.6-5.4,25.5-10.6,38.4-15.5c2.1-0.8,4.4-1.3,5.9-1.8
	c-3.9-7.2-8.2-14.2-11.8-21.6c-9.8-19.8-16.7-40.7-21.6-62.3c-4.4-20.3-7.2-41-5.7-61.8c0.5-7,2.3-13.7,3.6-20.6
	c2.8-13.9,8.5-26.8,14.4-39.7c0.5-1.3-0.3-3.9-1.3-5.2c-6.7-10.8-13.4-21.4-20.1-31.9c-4.4-7-8-14.4-12.9-20.6
	c-4.6-5.9-10-11.1-16-15.7c-2.3-1.8-6.7-1-9.8-2.1c-1.8-0.5-3.9-1.3-4.6-2.6c-0.5-0.8,1.3-2.8,1.8-4.4c0.8-2.1,1.3-4.1,1.5-6.2
	c0-1.5-0.8-3.1-1-4.6c2.3-0.5,4.9-2.1,7-1.5c5.2,1.5,10.8,2.6,14.9,7.2s7.2,4.1,10.6-0.3c-1.3-0.8-2.3-1.5-3.6-2.3
	c-1.8-1-4.4-1.3-5.2-2.6c-5.2-9.5-13.9-7.2-22.2-7.5c-0.8,0-1.5,0-2.6,0c-0.3,0-0.5,0-2.3-0.5c5.2-5.2,9.5-10,13.1-13.7
	c1.3-5.9,1.8-11.1,3.6-15.7c1.5-3.9,4.4-3.9,7.5-0.5c5.4,5.9,10.8,11.6,17.8,17c-0.5-1.8-0.8-3.9-1.5-5.4c-2.6-4.1-5.4-8-8-12.1
	c-1.5-2.6,1-7.7,4.1-8.5c8-2.1,7.7-2.1,12.9,4.4c1.5,1.8,4.4,2.3,6.7,3.6c0.5-0.5,1-0.8,1.5-1.3c-0.5-5.9-1-11.6-1.5-18.3
	c1,0,3.3-0.8,5.2-0.3c11.6,2.6,24,3.9,34.8,8.5c9.8,4.4,18.8,11.8,26.8,19.6c12.6,12.1,24,25.2,35.8,37.9c3.6,3.9,6.7,9,11.1,11.1
	c4.1,2.1,9.8,1.3,14.9,1.3c10-0.3,19.6-4.1,29.9-1.3c8.5,2.1,18,1.5,27,1.8c1.3,0,3.1-1,4.1-2.1c12.4-13.1,24.2-26.5,36.6-39.1
	c7.7-8,16-15.5,24.7-22.4c4.6-3.6,10.3-6.7,16.2-8.5c14.9-4.6,30.4-7.5,46.1-7.7c7.5,0,14.2,1.8,20.9,4.9c7,3.3,13.9,6.7,18.5,12.6
	c2.6,3.1,3.9,7.2,4.9,11.1c0.8,3.1-1.8,4.4-5.7,3.3c-1.3-0.3-2.8-0.5-5.2-0.8c-0.3-0.5-1.3-2.3-2.6-4.1c-2.6,4.6-5.4,7-10.6,3.3
	c-3.3-2.6-7.7-1-9.3,2.3c-1.3,2.8,1,7,4.6,8.2c5.7,1.8,11.3,3.9,17.3,1.5c1.3-0.5,2.8,0,4.9,0c-2.1,4.4-2.6,9.5-9.8,7.2
	c0.8,2.1,1.3,3.9,1.8,3.9c2.3,0.5,4.9,0,7.2,0.8c3.6,1,3.9-1.3,4.9-3.6c2.6-5.9,8-8,11.8-9c3.6,3.1,6.2,5.2,9,7.2
	c1,0.8,2.3,1.8,2.8,2.8c3.9,7.7,4.4,15.5-0.3,23.4c-5.9,10-5.9,10-16.2,5.7c-9.8-4.1-19.6-3.6-27,3.6c-8,7.7-14.7,17-21.1,26.3
	c-4.1,5.9-6.4,13.4-10,19.8c-3.9,7-8.5,13.9-13.1,20.6c-2.1,2.8-1.3,4.1,0.3,6.7c2.3,3.3,3.6,7.5,4.6,11.3c1.3,4.6,2.1,9.5,3.1,14.4
	c2.6,11.6,6.2,22.9,7.2,34.5c2.6,31.4-0.5,62.6-11.3,92.5c-5.7,15.7-13.4,30.9-20.3,46.4c-0.5,1.3-1.8,2.6-2.8,4.4
	c6.2-4.9,10.6-0.5,15.7,1.8c11.6,5.7,23.2,11.3,35,16.7c2.8,1.3,4.4,3.1,4.6,6.7c0,9.5-2.3,18.5-6.4,26.8
	c-10.3,19.8-19.8,40.2-31.2,59.2c-8.5,14.2-16.7,28.8-29.6,38.9c-18-10.6-36.1-20.9-54.3-31.7L298.4,478.6z"/>
<path class="st0" d="M0,258.2V129h15.2v-18h18V93h17.7V75h18V57.3h18v-18h17.7V21.6h17.7V3.9h89.4v17.7h18v18h17.7V57h18V39.3h18
	v-18h17.7V4.1h89.4v17.7h17.7v17.7h18v18h17.7v18h18v17.7h18v18h17.7v18H512v129.2h-14.6v17.7h-18v18h-17.7v18h-18v17.7h-18v18H408
	v18h-18v17.7h-17.7v17.7h-18v18h-17.7v18h-18V455h-18v18h-17.7v18h-18v17.2h-17.7v-17.7h-18v-18h-17.7v-18h-18v-17.7h-18v-18h-17.7
	V401H140v-18h-18v-17.7h-18v-18H86.3v-18h-18v-17.7h-17v-18H32.6v-17.7H14.9v-17.7C14.9,258.2,0,258.2,0,258.2z"/>
<g class="st0">
	<path class="st1" d="M358.4,75.5c68.3,7.9,123.2,64.9,133,133.6c6.9,48.6,13.5,97.3,20,146c4.7,35.3-17,69.6-50.4,80.4
		c-33.5,10.9-68.9-3.6-86.2-36.1c-14.1-26.5-27.8-53.3-41.3-80.2c-3.2-6.4-7-8.5-14.1-8.4c-42.3,0.3-84.6,0.4-126.9,0
		c-7.7-0.1-11.4,2.5-14.7,9.2c-12.7,25.6-25.9,50.9-39.1,76.2c-18.2,34.9-53.2,50.6-87.7,39.5c-35.1-11.3-55.6-46.2-50.1-84.8
		C8.1,300.4,13,249.5,22.7,199.4C37.2,124.1,102.2,73.2,179.1,73C204.6,73,324.6,71.6,358.4,75.5z M200.2,219.2
		c0-12.9,0-24.2,0-36.7c-12.2,0-23.8,0-36.5,0c0-12.8,0-24.4,0-35.5c-12.5,0-23.8,0-36.3,0c0,12.2,0,23.8,0,36.6
		c-12.8,0-24.4,0-35.5,0c0,12.5,0,23.8,0,36.3c12.2,0,23.8,0,36.6,0c0,12.8,0,24.4,0,35.5c12.5,0,23.8,0,36.3,0
		c0-12.2,0-23.8,0-36.1C177.2,219.2,188.5,219.2,200.2,219.2z M365.6,176.4c13.3,0,24.1-10.3,24.4-23.5
		c0.4-13.4-10.9-24.9-24.4-24.9c-13.5,0-24.8,11.4-24.4,24.8C341.5,166,352.3,176.4,365.6,176.4z M340.9,200.8
		c-0.2-13.2-10.8-23.9-23.9-24c-13.4-0.1-24.7,11.3-24.4,24.8c0.2,13,11.1,23.9,24.1,24C330.1,225.7,341.1,214.5,340.9,200.8z
		 M390.4,201c-0.1,13.7,11,24.9,24.5,24.6c13-0.3,23.8-11.2,23.9-24.2c0.1-13.5-11.3-24.8-24.7-24.6C401,177,390.5,187.7,390.4,201z
		 M390,250.4c0.3-13-10.3-24.1-23.4-24.5c-13.8-0.5-25.1,10.1-25.4,23.6c-0.3,13,10.4,24.2,23.4,24.7
		C378.1,274.8,389.7,263.9,390,250.4z"/>
</g>
<g class="st0">
	<path class="st1" d="M17.6,132.3c16.5-5.1,31.7-9.9,47-14.2c2.4-0.7,6.1-0.1,8.1,1.4c27.5,21.5,54.8,43.3,84,66.5
		c-35.9,11.1-70.2,21.6-104.4,32.2c0.1,0.6,0.2,1.2,0.3,1.7c146.7,0,293.4,0,441.2,0c0.2,4.2,0.6,7.7,0.6,11.2c0,80.7,0,161.3,0,242
		c0,26.4-12.7,38.9-39.4,38.9c-123.6,0-247.2,0-370.8,0c-26.9,0-39.8-12.9-39.8-39.9c0-81,0.1-162-0.1-243c0-6.2-1-12.6-2.8-18.6
		C33.9,184.8,25.8,159.1,17.6,132.3z M217.7,426.4c35-20.3,68.9-39.9,104.2-60.3c-35.8-20.6-69.5-40.1-104.2-60.1
		C217.7,346.9,217.7,385.9,217.7,426.4z"/>
	<path class="st1" d="M401.4,111.3c-26,7.9-51.1,15.7-76.2,23c-3,0.9-7.5,0.5-9.8-1.3c-27.5-21.4-54.7-43.2-83.5-66.1
		c12.6-3.9,23.7-7.4,34.8-10.9c14-4.3,27.9-8.8,42-12.5c3.3-0.9,8.2-0.6,10.7,1.4c26.8,20.8,53.2,42,79.7,63.2
		C399.8,108.6,400.2,109.6,401.4,111.3z"/>
	<path class="st1" d="M108.7,104.4c27.6-8.5,53.2-16.5,79-24.1c2.4-0.7,6.2,0.1,8.1,1.7c27.5,21.5,54.7,43.3,83.7,66.3
		c-8.3,2.7-15.1,4.9-21.8,7c-18.1,5.6-36.2,11.2-54.3,16.5c-3.1,0.9-7.8,1.3-10-0.3C165.5,149.8,138.1,127.8,108.7,104.4z"/>
	<path class="st1" d="M450,0c9.1,29.9,17.8,58.3,26.9,88.1c-11,3.4-21.3,6.7-31.7,9.7c-1.6,0.5-4.1-0.1-5.5-1.2
		c-27.9-21.9-55.6-44-85.1-67.4C387.3,19.2,418.1,9.8,450,0z"/>
</g>
<g class="st0">
	<path class="st1" d="M330.8,259.4c-3.7,3.9-6.4,7-9.3,9.9c-48.3,48.3-96.6,96.5-144.7,144.9c-5.2,5.3-9,12.1-12.9,18.6
		c-9.3,15.3-17.8,31.3-27.7,46.2c-13.7,20.6-34.6,30.4-58.5,32c-19,1.2-38.2-0.7-57.3-1.9c-8.9-0.5-15.2-6.1-16.7-15
		C-0.7,469-2,443.8,4.4,418.8c4.1-16.1,12-30.1,25.7-39.7c13.8-9.6,27.8-19.2,42.7-26.7c12.6-6.3,23.3-13.9,33.1-23.9
		c33.1-33.6,66.7-66.7,99.8-100.3c5.8-5.9,10.7-7.7,18.9-4.8c32.1,11.3,64.6,21.7,96.9,32.5C324.3,256.8,327,258,330.8,259.4z
		 M38.2,474.1c14.1,0,27.1,1.1,39.9-0.2c23.4-2.3,33-21.4,43.3-38.8c10.1-17,9.8-17.2-4-31c-25-25-25-24.9-54.6-4
		c-12.6,8.9-23.5,18.9-24.5,35.4C37.6,447.9,38.2,460.5,38.2,474.1z"/>
	<path class="st1" d="M296.7,139.1c1.6-2.3,2.3-3.7,3.3-4.7c39.6-39.6,78.6-79.7,118.9-118.5c27.5-26.5,72.2-17.1,87.6,17.4
		c9.4,21.2,7.1,42-8.7,58.9c-26.2,27.9-53.8,54.6-81.1,81.5c-2.1,2-7,3-9.8,2.1c-33.5-10.7-66.9-21.9-100.3-33
		C303.7,141.8,300.9,140.6,296.7,139.1z"/>
	<path class="st1" d="M381.8,206.6c-0.8,2.2-0.9,2.6-1.1,2.9c-18.3,21.2-18.3,21.2-44.6,12.5c-26.5-8.8-53.1-17.6-79.6-26.4
		c-3.9-1.3-7.7-2.9-14.9-5.8c8.3-7.2,14.8-13.1,21.7-18.6c1.7-1.4,5-2.3,7-1.7C307.3,181.7,344.2,194,381.8,206.6z"/>
</g>
<g class="st0">
	<path class="st1" d="M256.4,49.8c75.6,0,151.2,0,226.9,0c20.9,0,28.7,7.9,28.7,29.1c0,93.6,0,187.2,0,280.8
		c0,20.3-8.1,28.3-28.5,28.4c-151.6,0-303.1,0-454.7,0C8.2,388.1,0,379.8,0,358.9c0-93.6,0-187.2,0-280.8c0-20.2,8.2-28.2,28.6-28.2
		C104.5,49.8,180.5,49.8,256.4,49.8z M28.1,77.6c0,85.1,0,169.5,0,254.2c152.4,0,304,0,455.6,0c0-85.2,0-169.6,0-254.2
		C331.4,77.6,179.9,77.6,28.1,77.6z"/>
	<path class="st1" d="M255.4,462.2c-35,0-70,0-105,0c-10.7,0-14.3-5.6-8-14.2c3.3-4.6,10.4-10.1,14.9-9.5
		c23.4,3.5,33.1-11.8,40.9-28.7c4-8.7,8.8-11.3,17.9-11.1c28,0.6,56,0.4,84,0.1c6.3-0.1,9.6,1.8,11.9,7.7c2,5.2,5.3,10,8.2,14.8
		c7,11.4,15.5,19.3,30.6,16.8c8.6-1.5,15.6,2.7,19.5,10.8c4.4,9,1.8,13.2-8.1,13.2C326.7,462.2,291.1,462.2,255.4,462.2z"/>
	<path class="st1" d="M259.3,295.7c-30.6-0.6-55.6-9.1-79-22.7c-24.4-14.2-45.7-32.3-64.8-52.9c-8.8-9.5-10-19.2-2.2-27.7
		c30.8-33.7,65.6-61.6,110.6-73.9c32-8.8,62.8-3.7,92.3,10.2c31.5,14.9,57.9,36.6,81.2,62.2c7.8,8.6,8.8,18.2,1.5,26.2
		c-32.8,36.1-70,65.5-119.1,76.2C272,294.8,263.9,295.1,259.3,295.7z M255.9,133.8c-39.4,0-71.3,32-71.2,71.1
		c0.1,39.2,32.1,71.1,71.4,71c39.2,0,71.3-32.1,71.2-71.3C327.2,165.4,295.3,133.8,255.9,133.8z"/>
	<path class="st1" d="M266.3,167.5c-8,14.8-7.9,22.4,0.2,29.2c7.2,6,15.6,5.1,26.1-2.7c6.4,14.1,0.9,32.4-13,42.6
		c-15,11.1-35.8,10.3-49.8-1.9c-14-12.2-17.5-32.7-8.4-49.1C230.5,169.3,248.2,162.2,266.3,167.5z"/>
</g>
<g class="st0">
	<g class="st1">
		<path d="M359.2,204.4c0,16.9,0,32.5,0,48.1c0,17-10.1,28.6-25.1,28.9c-14.8,0.3-25.2-11.1-25.9-28.1c-0.7-15.9-1.5-31.8-2.3-48.8
			c-16.6,0-31.8,0-47.1,0c-14.3,0-28.7,0.2-43-0.1c-6-0.1-8.6,1.9-8.6,7.9c0,28.9,0,57.9-0.1,86.8c0,5.9,2.4,8.2,8.5,8
			c13-0.4,26-0.3,39-0.1c16.8,0.3,28.4,11.1,28,25.9c-0.3,14.6-11.6,24.8-28,25c-12.3,0.1-24.6,0-39.3,0c6.1,18.9,11,36.8,17.7,54
			c5.5,14.2,12.6,27.9,19.9,41.2c1.9,3.4,7.2,6.1,11.4,6.9c6.5,1.2,13.3-0.1,19.9,0.5c14,1.3,24.2,12.8,23.8,26.1
			c-0.4,13.2-10.7,24-24.1,24.8c-78.5,4.3-149-16.2-205.3-72.9C6.1,365.4-17.6,277.2,13.6,178.9C44.5,81.6,113.3,21.8,214.1,4
			C356.6-21.2,488.8,75.8,510,219.1c3.1,20.8,1.5,42.5,0.7,63.7c-0.6,14.5-13.2,24-27.4,22.9c-13.9-1.1-23-12.7-23.3-27.5
			c-0.4-21.5-1.9-43-3-64.6c-0.3-6.7-3.2-9.6-10.7-9.4C417.1,204.7,387.8,204.4,359.2,204.4z M155.4,204.5
			c-30.5,0-61.1-0.1-91.6,0.3c-2.2,0-5.7,4.1-6.4,6.8c-6.8,29.3-6.6,58.6-0.4,88c1.2,5.5,3.5,7.7,9.3,7.6
			c21.6-0.3,43.2-0.1,64.8-0.1c8.2,0,16.4,0,24.2,0C155.4,272.4,155.4,239.3,155.4,204.5z M322.2,61.7c9.8,30.7,19.3,60.6,29,91
			c26.3,0,53.6,0,82.4,0C406.7,108.4,369.9,78.7,322.2,61.7z M191.1,62.1c-47.4,16.9-84.2,46.5-110.8,90.8c29,0,56.2,0,82.1,0
			C172,122.4,181.4,92.7,191.1,62.1z M79.9,357.9c27.4,45,64,74.7,110.5,91.1c-8.5-28.7-16.7-57-25.4-85.2c-0.8-2.5-4.6-5.6-7-5.6
			C132.7,357.8,107.5,357.9,79.9,357.9z M256.6,52c-19.5,32.5-31.7,65.6-39.6,100.8c26.9,0,52.9,0,79.6,0
			C288.4,117.3,276.4,84.2,256.6,52z"/>
	</g>
	<path class="st1" d="M411.8,492.6c-6,6.2-16.2,6.1-21.6-0.6c-0.6-0.7-1-1.4-1.4-2.2c-23.4-50.6-46.6-101.3-69.2-152.2
		c-1.9-4.4-0.6-13,2.6-16.1c3.2-3.1,11.8-4.1,16.2-2.1c50.7,22.3,101.1,45.3,151.3,68.7c4.2,2,8.7,8.4,8.8,12.8
		c0,4.4-4.4,10.6-8.6,13c-12.9,7.6-27,13.1-40,20.7c-6,3.6-11.6,9.3-15.2,15.4c-7.4,12.6-12.9,26.3-20.1,39
		C413.9,490.2,412.9,491.4,411.8,492.6z"/>
</g>
<g class="st0">
	<path class="st1" d="M189.2,313.4l10.7-10.2c0,0,144.6-144.7,216.9-217.1c16.6-16.6,35.8-23.4,58.6-16c33.9,11,47.5,52.2,27,81.5
		c-3.6,5.1-8.1,9.7-12.6,14.1C404.4,251.2,319,336.6,233.6,422.1c-30.4,30.4-59.1,30.4-89.6-0.1c-42.3-42.3-84.7-84.4-126.7-126.9
		c-21.1-21.3-22.9-51.5-5-73.1c20.5-25,56.5-27,80.3-3.7c28.9,28.2,85.8,85.7,85.8,85.7L189.2,313.4z"/>
</g>
<g class="st0">
	<path class="st1" d="M493.9,144.1c0,17.3,0,33.9,0,50.5c0,41.4-0.3,82.9,0.2,124.3c0.1,10.3-2.2,18.9-9.3,26.1
		c-7.3,7.3-14.3,15.1-22.5,21.2c-11.2,8.5-24.1,10.5-37.9,5.8c-3.3-1.1-9.2-1.2-10.9,0.8c-2.3,2.6-3,8.2-1.9,11.8
		c6.8,22.7,7.3,45.2-0.2,67.6c-6.2,18.6-10.3,21.3-29.4,21.3c-109.6,0-219.1,0-328.7,0c-22,0-35.1-11.5-35.2-33.6
		c-0.4-97.7-0.2-195.3-0.1-293c0-0.7,0.4-1.4,0.8-2.8C176.5,144.1,334.4,144.1,493.9,144.1z M267.8,307.7
		C267.8,307.7,267.8,307.7,267.8,307.7c0-12.9,0.4-25.9-0.1-38.8c-1.1-29.1-23.4-50.5-51.5-49.8c-27.5,0.6-48.9,22.8-49.2,51.2
		c-0.2,25.1-0.2,50.3,0,75.4c0.2,29.8,21.9,52,50.5,52c28,0,49.4-21.6,50.2-51.1C268.1,333.6,267.8,320.6,267.8,307.7z M327,244.3
		c0,5.7,0,9.6,0,13.4c0,41,0,82,0,122.9c0,3-1,6.6,0.4,8.7c2.1,3.2,5.7,7,9,7.4c2.4,0.3,6.1-4.1,7.9-7.2c1.3-2.2,0.4-5.8,0.4-8.7
		c0-48.4,0-96.7,0-145.1c0-2.6,0.3-5.2-0.1-7.7c-1.4-7.9-6.1-11.2-13.4-7.2c-9.7,5.3-19.3,10.9-28.1,17.6c-0.6,0.4-1,1-1.4,1.8
		c-2.7,5.7,1.7,12.3,8,12.5c0.8,0,1.6,0,2.4-0.2C316.8,251.4,320.9,247.8,327,244.3z"/>
	<path class="st1" d="M100.2,43.8c24.4,0,46.9,0,71,0c0,7.7-0.2,14.9,0,22.2c0.4,13.2,9.5,22.9,21.7,23.7
		c12.4,0.8,23.2-8.8,24.3-22.3c0.6-7.3,0.1-14.8,0.1-23.1c23.6,0,46.6,0,70.8,0c0,6.8-0.2,13.4,0,20c0.5,15.4,10.2,25.7,23.5,25.4
		c13-0.3,22.1-10.4,22.5-25.2c0.2-6.6,0-13.2,0-20.4c23.8,0,46.6,0,70.8,0c0,7-0.2,13.9,0,20.7c0.5,14.6,10.1,24.7,23.1,24.9
		c13.3,0.2,23-10.4,23.3-25.6c0.1-6.6,0-13.1,0-20.6c9.6,0,18.1-0.8,26.4,0.2c10,1.2,14.8,9.4,15.2,18c0.9,20.9,0.3,41.9,0.3,63.4
		c-158.6,0-316.4,0-475.1,0c0-21.4-1-42.4,0.3-63.3c1-15.9,10.7-20.1,35.2-17.6c0,7.1-0.2,14.4,0,21.6c0.5,13.6,10.3,23.7,22.9,23.8
		c12.6,0.2,22.7-9.7,23.4-23.3C100.5,59.1,100.2,51.8,100.2,43.8z"/>
	<path class="st1" d="M493.1,433.7c0,21.8,0.9,41.6-0.4,61.3c-0.8,11.5-9.1,17-20.8,17c-143.9,0-287.9,0-431.8,0
		c-16.3,0-24-10.9-21-30.6c12,10.1,26,9.9,40.1,9.9c110.6-0.1,221.3-0.8,331.9,0.3c43,0.4,74.8-16.5,97.6-52
		C489.7,438.1,490.8,436.8,493.1,433.7z"/>
	<path class="st1" d="M423.4,470.1c11.7-25.7,12.6-50.8,9-77.6c24.7,1,43.4-11.2,59.9-28.7C497.2,405.4,463.8,457.5,423.4,470.1z"/>
	<path class="st1" d="M71.5,33.6c0-9.6-0.4-19.3,0.3-28.8C71.8,3.8,72.3,2.9,73,2c2.3-2.9,6.9-2.6,8.6,0.7c0.4,0.7,0.6,1.3,0.6,2
		c0.4,20,0.4,39.9,0,59.9c0,0.9-0.5,1.7-1.1,2.6c-2.1,2.7-6.2,2.7-8.2,0c-0.6-0.8-1-1.7-1.1-2.5C71.2,54.3,71.5,43.9,71.5,33.6z"/>
	<path class="st1" d="M433.7,35c0,9.6,0.4,19.2-0.3,28.8c-0.1,0.9-0.5,1.9-1.1,2.8c-2.1,3.1-6.8,2.9-8.7-0.3c-0.4-0.7-0.6-1.3-0.6-2
		c-0.4-19.9-0.4-39.9,0-59.8c0-0.6,0.2-1.3,0.6-1.9c1.9-3.2,6.6-3.3,8.7-0.2c0.6,0.9,1.1,1.9,1.1,2.8C434.1,15,433.7,25,433.7,35z"
		/>
	<path class="st1" d="M199.7,33.7c0,10,0.4,20-0.3,29.9c-0.1,0.7-0.3,1.5-0.8,2.2c-2,3.5-7.3,3.3-9.1-0.3c-0.3-0.7-0.6-1.4-0.6-2.2
		c-0.4-19.2-0.4-38.4,0-57.5c0-0.3,0-0.6,0.1-0.9c1-4.7,7.7-5.1,9.7-0.7c0.3,0.6,0.5,1.3,0.6,2C200.2,15.2,199.7,24.5,199.7,33.7z"
		/>
	<path class="st1" d="M316.5,34.3c0,9.6,0.4,19.2-0.2,28.7c0,0.4-0.1,0.9-0.2,1.3c-1.4,4.5-7.9,5.1-9.7,0.7
		c-0.2-0.4-0.3-0.9-0.3-1.3c-0.5-19.5-0.5-39,0-58.5c0-0.4,0.1-0.9,0.3-1.3c1.7-4.4,8.3-3.9,9.7,0.6c0.1,0.4,0.2,0.8,0.2,1.2
		C316.9,15.2,316.5,24.8,316.5,34.3z"/>
	<path class="st1" d="M184.7,308.3c0-12.9-0.2-25.8,0.1-38.8c0.4-18.6,14.2-32.5,32.1-32.8c17.7-0.3,32.5,13.2,33,31.8
		c0.6,26.6,0.6,53.1,0,79.7c-0.5,18.7-15.1,32-33,31.7c-17.8-0.4-31.6-14.3-32.1-32.8C184.5,334.2,184.7,321.3,184.7,308.3z"/>
</g>
<g class="st0">
	<path class="st1" d="M253.5,478.4c-30.6,0-61.3,0.1-91.9,0c-27.2-0.1-40.5-13-40.5-40.4c0-30.9-1.7-62.2,2-92.7
		c7.2-60.3,54.2-101.7,116.1-104.7c19.2-0.9,39.2-1.4,57.6,2.9c48.3,11.3,78,43.4,90.9,91c2.1,7.6,2.8,15.8,3,23.7
		c0.4,27,0.8,53.9,0.3,80.9c-0.5,27-10.8,37.5-37.6,38.7c-25.3,1.1-50.6,1.1-75.9,1.5c-8,0.1-16,0-24,0
		C253.5,479,253.5,478.7,253.5,478.4z"/>
	<path class="st1" d="M255.3,206.5c-48.1-0.3-86.7-39.5-86.1-87.5c0.6-48.1,40-86.9,87.6-86.3c48,0.6,86.7,40,86.1,87.8
		C342.4,168.8,303.6,206.9,255.3,206.5z"/>
	<path class="st1" d="M90.7,445.7c-22.9,0-45.4,0.9-67.8-0.4c-12.4-0.7-22.3-13.7-22.4-26.9c-0.3-38.6-0.9-77.2,0.2-115.7
		c0.9-30.1,25.5-56.9,55.4-60.5c16.3-2,33.2-1.4,49.6,0.5c9.7,1.1,18.8,7.2,27.6,10.8c-0.4,2.9-0.3,3.7-0.6,4.1
		c-31,31.8-41.3,71.2-41.9,114C90.4,395.8,90.7,420.1,90.7,445.7z"/>
	<path class="st1" d="M421.4,446.3c0-25.9,0.3-49.9-0.1-73.8c-0.6-43.5-10.2-83.9-45.3-117.7c11.3-4.7,20.6-10.9,30.5-12.2
		c15.7-2.1,32-2.6,47.7-0.8c32.9,3.9,57.2,32,57.5,65.1c0.4,36,0.2,71.9,0,107.9c-0.1,18.4-12.1,31-30.3,31.4
		C461.6,446.6,441.7,446.3,421.4,446.3z"/>
	<path class="st1" d="M79.3,206.5c-30.2-0.4-54.2-25-53.9-55.2c0.3-30.5,25.7-55.4,55.8-54.6c30.2,0.7,54.2,25.4,53.9,55.5
		C134.8,182.9,110.2,206.9,79.3,206.5z"/>
	<path class="st1" d="M432.2,206.5c-30.8,0.1-55.3-24.3-55.2-55c0.1-30.1,24.5-54.6,54.6-54.9c30.3-0.2,55.2,24.7,55.1,55.3
		C486.7,182.2,462.6,206.4,432.2,206.5z"/>
</g>
<path class="st0" d="M258.9,334.9c-5.6,5.8-15.1,5.7-20.1-0.6c-0.5-0.7-1-1.3-1.3-2.1c-21.8-47-43.3-94.1-64.2-141.5
	c-1.8-4.1-0.6-12.1,2.4-15c3-2.9,10.9-3.8,15.1-2c47.1,20.8,93.9,42.1,140.6,63.9c3.9,1.8,8.1,7.8,8.1,11.9c0,4.1-4.1,9.8-8,12.1
	c-12,7-25.1,12.2-37.1,19.2c-5.6,3.3-10.8,8.6-14.1,14.3c-6.9,11.7-12,24.4-18.7,36.3C260.9,332.7,260,333.8,258.9,334.9z"/>
<g class="st0">
	<g class="st1">
		<path d="M362.9,198.9l8.5-3.2V48c0-26.5-21.5-48-48-48h-240c-26.5,0-48,21.5-48,48v416c0,26.5,21.5,48,48,48h240
			c26.5,0,48-21.5,48-48V285.1l-3.5-1.3c-2.7-1-5.4-2-8.2-3.1v0l-10-3.8v202H57V33h292.7v170.9l10-3.8v0
			C360.8,199.7,361.9,199.3,362.9,198.9z M203.4,27c-5.5,0-10-4.5-10-10c0-5.5,4.5-10,10-10s10,4.5,10,10
			C213.4,22.5,208.9,27,203.4,27z"/>
		<path d="M305.1,240.4c-0.1,4.2,4.8,10.7,8.9,12.3c8.5,3.3,17.1,6.6,25.7,9.8v-44c-8.4,3.3-16.9,6.5-25.3,9.8
			C310.1,230,305.2,236.2,305.1,240.4z"/>
		<path d="M359.7,200.1L359.7,200.1l-10,3.8v0C353.1,202.7,356.4,201.4,359.7,200.1z"/>
		<path d="M349.7,277l10,3.8v0C356.4,279.5,353.1,278.2,349.7,277L349.7,277z"/>
		<path d="M349.7,203.9L349.7,203.9l-3.6,1.4C347.3,204.8,348.5,204.4,349.7,203.9z"/>
		<path d="M339.7,218.5v44c3.3,1.3,6.7,2.5,10,3.8c3.3,1.3,6.7,2.5,10,3.8v-59.2c-3.3,1.3-6.7,2.5-10,3.8
			C346.4,215.9,343.1,217.2,339.7,218.5z"/>
	</g>
	<path class="st1" d="M476.6,293.7c0.1,8-6.6,14.7-14.6,13.8c-0.8-0.1-1.6-0.3-2.4-0.5c-48.7-17.7-97.2-35.7-145.6-54.3
		c-4.2-1.6-9-8.1-8.9-12.3c0.1-4.2,5-10.4,9.3-12.1c47.9-18.7,96.1-36.9,144.4-54.6c4.1-1.5,11.3-0.2,14.2,2.6
		c2.9,2.9,4.1,9.8,2.9,14.2c-3.5,13.5-9.1,26.4-12.6,39.9c-1.6,6.3-1.5,13.7,0.2,20.1c3.4,13.1,8.9,25.8,12.5,38.9
		C476.4,290.7,476.6,292.2,476.6,293.7z"/>
</g>
<g class="st0">
	<path class="st1" d="M317.5,366.9c-80-1.2-152.5-61-168.2-139.5c-2.5-12.6-4.1-25.5-4.1-38.3c0-34.3,36.4-54.9,66.3-38.2
		c4.4,2.5,6.8,5.7,7.6,10.7l7.2,46.8c0.4,2.7-0.8,6.2-2.3,8.6c-1.9,3-4.8,5.5-7.6,7.7c-10.9,8.5-11,8.4-4.6,20.8
		c13.7,26.4,34.2,45.7,61.5,57.8c5.2,2.3,8.5,2.3,10.9-3.4c1-2.4,2.9-4.5,4.5-6.6c4.1-5.1,8.5-7.3,15.7-5.8l47.5,7.7
		c5.7,0.7,8.5,3.7,10.7,8.4c13.5,29.5-7.6,62.9-40,63.4C320.9,367,319.2,367,317.5,366.9z"/>
</g>
<g class="st0">
	<path class="st1" d="M397.9,511.9C213.3,509.2,46.1,371.1,9.8,190.2c-5.8-29-9.4-58.9-9.4-88.4c0.1-79.1,84.1-126.6,153-88.2
		c10.1,5.7,15.8,13,17.5,24.7l16.7,108.1c0.9,6.3-1.8,14.3-5.4,19.8c-4.5,6.9-11,12.7-17.6,17.8c-25.1,19.6-25.3,19.5-10.5,47.9
		c31.7,61,78.9,105.4,141.8,133.4c11.9,5.3,19.7,5.2,25.2-7.9c2.3-5.6,6.6-10.4,10.4-15.2c9.4-11.7,19.6-16.8,36.3-13.3l109.6,17.7
		c13.2,1.7,19.6,8.5,24.6,19.4c31.2,68-17.5,145.2-92.3,146.1C405.8,512,401.8,512,397.9,511.9z"/>
</g>
<g class="st0">
	<path class="st1" d="M0,511.8c8.6-31.4,15.6-61.4,25.3-90.7c8.3-25.2,12.8-49-4.6-72C-40.8,198.5,54.5,29.6,215.2,4
		C293.9-8.5,365,9.6,424.1,62.5c74.1,66.3,102.8,150.8,80.5,248.2c-22.2,96.7-85.2,158.4-179.6,186.8
		c-62.2,18.8-123,11.6-181.6-16.3c-5.1-2.4-12.2-3.2-17.7-1.8C84.4,489.6,43.3,500.5,0,511.8z M61.5,450.5c23.2-6,44.8-10.9,66-17.2
		c9.7-2.9,17.1-1.6,26,3.4C287.7,511.9,455,423.2,468,270.1c12-141.3-119.6-255-257.8-222.7C67.6,80.6,1.1,240.6,78.2,365.3
		c3.5,5.6,4.1,10.4,2.2,16.7C73.9,404.1,68.1,426.2,61.5,450.5z"/>
	<path class="st1" d="M316,374.3c-25.3-2.9-54.9-14.9-81.8-32.2c-40.5-26-71.3-61.8-94.7-103.5c-19.3-34.4-15.7-65.4,7.7-92.5
		c8-9.3,26.6-14.3,37.4-9.3c3.2,1.5,6.1,5.3,7.6,8.7c7.2,16.1,14.2,32.2,20.4,48.7c1.5,4,0.3,9.7-1.3,14c-1.7,4.5-5.3,8.4-8.5,12.2
		c-12,14.5-12,14.4-1.2,30.5c19.3,28.6,44.6,49.8,76.4,63.5c8.8,3.8,14.9,3.6,20.6-4.5c4.4-6.2,10.1-11.6,14.3-17.9
		c5-7.7,11-8.7,18.7-5.1c10.5,5,21,9.9,31.5,14.9c2.7,1.3,5.3,2.9,8.1,3.8c15.3,4.8,16.7,6.9,14.2,22.7
		C381,356,356.3,374.3,316,374.3z"/>
</g>
<g class="st0">
	<path class="st1" d="M25.9,79.2C34,78,40,76.1,46.1,76.1C186,76,325.8,76,465.7,76.1c6.1,0,12.2,1.7,20.8,3
		c-4.1,4.3-6.2,6.6-8.4,8.8c-68.4,68.6-136.8,137.3-205.2,205.9c-12.7,12.8-21.1,12.8-33.6,0.2C170.9,225.4,102.5,156.8,34.1,88.1
		C31.8,85.8,29.7,83.4,25.9,79.2z"/>
	<path class="st1" d="M27.2,433c52.2-51.6,103.3-102.1,155.5-153.8c10.4,10.6,22.6,23.2,35,35.6c25.1,25.3,51.3,25.3,76.5,0
		c12.2-12.3,24.3-24.6,35.2-35.6c51.7,51.1,103,101.8,155.5,153.7c-6.8,1.1-12.9,2.9-19,3c-139.9,0.2-279.9,0.2-419.8,0
		C40,435.9,34,434,27.2,433z"/>
	<path class="st1" d="M2.9,407.8c-0.8-5.1-2.8-11.8-2.8-18.6c-0.2-88.6-0.2-177.3,0-265.9c0-6.8,1.9-13.6,2.8-19.6
		c51.6,51.2,102.8,101.9,153.5,152.1C106.1,305.6,54.9,356.3,2.9,407.8z"/>
	<path class="st1" d="M354.5,255.9c51.1-50.6,102.3-101.4,154.3-152.8c1,6.1,3.1,12.8,3.1,19.5c0.2,89,0.2,177.9,0,266.9
		c0,6.7-2.1,13.4-3.1,19.5C456.8,357.4,405.6,306.6,354.5,255.9z"/>
</g>
<g class="st0">
	<path class="st1" d="M257,0c95.8,0.8,178.5,68.6,196.6,161.9c7.8,40.3-0.8,78.5-16.4,115.5c-26.2,62.2-65.7,116.1-107.6,168.3
		c-12.6,15.7-25.5,31.2-39,46c-6.3,6.8-13.8,13.6-22.2,17.2c-18.9,8.2-34.1-0.9-46.3-14.9c-16-18.3-31.7-36.9-46.7-56
		c-39-49.6-75.3-100.9-101.9-158.6C17.7,158.3,98,19.7,229.8,2.5C238.8,1.3,247.9,0.8,257,0z M256.9,292.4
		c50.8-0.2,90.8-40.7,90.6-91.7c-0.2-50.9-40.6-90.8-91.7-90.6c-50.8,0.2-90.8,40.7-90.6,91.7C165.4,252.6,205.8,292.6,256.9,292.4z
		"/>
</g>
<g class="st0">
	<path class="st1" d="M192.4,442c1.4-20.5,2.7-40.7,4.1-60.9c1.1-15.6,2.7-31.3,3.2-46.9c0.2-7.4,3-12.2,8.3-17
		c68.7-61.4,137.2-122.9,205.6-184.5c3.5-3.1,6.5-6.8,10.4-11c-9.8-5.2-16-0.8-22,3c-46.1,28.8-92.1,57.6-138.2,86.5
		c-41,25.6-81.9,51.4-123.1,76.7c-3.6,2.2-9.5,3-13.6,1.8C91.7,279,56.4,268,21.2,256.8c-9.1-2.9-20.7-5-21.2-16.7
		c-0.5-11.9,10.7-16.3,19.9-19.8c49.6-19.4,99.4-38.4,149.2-57.4c101.1-38.7,202.2-77.4,303.3-116.1c3.4-1.3,6.9-2.6,10.4-3.5
		c16.1-3.8,28,4.6,29.1,21.2c0.4,6.5-0.5,13.3-1.8,19.8c-25.3,119.3-50.8,238.5-76.3,357.8c-0.9,4.2-2.2,8.4-4,12.4
		c-5.9,13.4-16.4,18.2-30.2,13.1c-5.8-2.1-11.3-5.7-16.4-9.4c-36.7-26.7-73.2-53.5-110.4-80.8c-19.7,18.8-39.2,37.4-58.8,56
		C208.3,439,202.1,443.9,192.4,442z"/>
</g>
<g class="st0">
	<path class="st1" d="M503.5,0.1c0.2,2.8,0.5,4.9,0.5,7.1c0,47.6-0.1,95.1-0.1,142.7c0,50.1,0.1,100.3,0.3,150.4
		c0,6.7-2.1,11.8-6.9,16.6c-42.3,42.1-84.5,84.3-126.6,126.6c-4.7,4.7-9.7,7-16.5,6.9c-25-0.3-49.9-0.1-74.9-0.3
		c-6.4-0.1-11.2,2.1-15.6,6.6c-16.6,16.9-33.5,33.5-50.1,50.3c-3.5,3.5-7.2,5.1-12.2,5c-20.9-0.2-41.9-0.1-62.8,0
		c-1.8,0-3.6,0-5.9,0c-0.1-2.5-0.3-4.4-0.3-6.4c0-16.2-0.3-32.3,0.1-48.5c0.1-5.8-1.8-7-7.2-7c-36.7,0.2-73.4,0.1-110.2,0.1
		c-2.2,0-4.3,0-7.3,0c0-2.9,0-5.2,0-7.5c0-114.4,0-228.8,0.1-343.2c0-4.3,0.8-8.8,2.1-12.9c8.6-26.5,17.5-52.9,26.1-79.4
		C37.8,2.1,40.4,0,46,0c150.4,0.1,300.8,0.1,451.2,0.1C499.1,0.1,501.1,0.1,503.5,0.1z M84.2,45.8c-0.1,2.3-0.3,3.9-0.3,5.5
		c0,105.4,0,210.8-0.1,316.2c0,5.3,1.8,6.3,6.7,6.3c32.3-0.2,64.6,0,96.9-0.2c4.3,0,5.8,1.2,5.7,5.6c-0.2,16.5-0.1,33-0.1,49.6
		c0,1.9,0.2,3.9,0.4,7.1c2.4-2.2,3.9-3.5,5.3-4.8c17.2-17.1,34.4-34.2,51.4-51.4c4.2-4.2,8.6-6.2,14.6-6.1
		c36.2,0.2,72.3,0,108.5,0.1c5.1,0,9.1-1.6,12.7-5.3c22.3-22.3,44.7-44.6,67.1-66.8c3.9-3.9,5.8-8,5.8-13.6
		c-0.1-78.8-0.1-157.5-0.1-236.3c0-1.9-0.2-3.8-0.3-5.8C333.3,45.8,209.1,45.8,84.2,45.8z"/>
	<path class="st1" d="M255.1,140.8c0,46.2,0,91.5,0,137.1c-15,0-29.7,0-45,0c-0.1-2-0.3-4-0.3-6c0-41.6,0.1-83.3-0.1-124.9
		c0-5.3,1.7-6.4,6.6-6.3C229,141,241.8,140.8,255.1,140.8z"/>
	<path class="st1" d="M378.6,278.1c-14.5,0-28.5,0-43.2,0c-0.1-2-0.4-3.9-0.4-5.8c0-41.6,0.1-83.3-0.1-124.9c0-4.8,1-6.8,6.3-6.6
		c11,0.4,22,0.2,33,0.1c3.4,0,4.9,0.9,4.9,4.6c-0.1,43.1-0.1,86.2-0.1,129.3C379,275.6,378.8,276.5,378.6,278.1z"/>
</g>
<g class="st0">
	<path class="st1" d="M0,255.9c0-35.3,0-70.5,0-105.8C0.1,77.4,49.4,17,120.6,2.9c9.3-1.8,18.9-2.7,28.4-2.7
		C220.5,0,292,0,363.5,0.1c74.9,0.1,138,55.9,147.3,130.2c0.8,6.4,1.1,12.8,1.1,19.2c0.1,71.1,0.1,142.2,0,213.3
		c-0.1,75.5-55.3,138.4-130,148c-6.2,0.8-12.4,1.1-18.6,1.1c-71.1,0.1-142.2,0.1-213.3,0C74,511.9,11.9,457.9,1.4,382.6
		c-0.9-6.5-1.2-13.2-1.3-19.8C0,327.2,0,291.5,0,255.9z M466,256c0-35.7,0.2-71.3,0-107C465.6,92.2,420,46.2,363.6,46
		c-71.3-0.2-142.6-0.2-213.9,0.1c-9.6,0-19.5,1.5-28.8,4.1C76.2,62.8,46.1,102.8,46,149.6c-0.2,71.3-0.1,142.6,0,213.9
		c0,5.4,0.5,10.9,1.5,16.3c9.1,50.8,50.9,86.1,102.7,86.2c70.9,0.2,141.8,0.2,212.8-0.1c9.4,0,19.1-1.5,28.2-4
		c44.3-12.2,74.7-52.7,74.8-98.9C466.1,327.3,466,291.7,466,256z"/>
	<path class="st1" d="M256.3,124.8c72.3,0,131.1,58.5,131,130.5c0,74-58,132-131.8,132.1c-72.3,0.1-130.9-58.8-130.7-131.4
		C124.9,182.8,183.1,124.8,256.3,124.8z M170.8,255.9c-0.1,47,37.9,85.2,84.7,85.4c46.9,0.1,85.7-37.7,85.8-83.7
		c0.1-48.5-37.3-86.7-85-86.8C208.9,170.7,170.8,208.6,170.8,255.9z"/>
	<path class="st1" d="M392.6,149.9c-17.6-0.2-30.6-14-30.3-32.2c0.3-15.7,14.5-29,30.7-28.9c17.5,0.2,30.6,14.1,30.3,32.3
		C423.1,136.7,408.9,150,392.6,149.9z"/>
</g>
<g>
	<path d="M0,498.4c67.8-72.6,134.1-143.7,200.8-215.3C134.1,193.6,67.7,104.3,0.1,13.6c4.5,0,7.2,0,9.9,0c43.2,0,86.4,0.2,129.6-0.2
		c6.3,0,10.1,2,13.8,6.9c41.6,55.7,83.4,111.3,125.1,166.9c1.6,2.2,3.4,4.3,5.4,6.7c16.3-17.3,32.1-34.2,47.9-51.1
		c38.8-41.6,77.6-83.4,116.6-124.8c2.3-2.4,6.4-4.1,9.7-4.3c11.4-0.5,22.7-0.2,36.3-0.2c-64.5,69.3-127.7,137.3-191.6,205.9
		c69.4,92.5,138.8,185,209.3,278.9c-4.4,0-7.1,0-9.8,0c-44,0-88-0.2-131.9,0.2c-6.6,0-10.6-2-14.4-7.2
		c-44.3-59.8-88.8-119.4-133.2-179c-0.7-1-1.5-2-2.8-3.6c-13.1,13.9-25.9,27.6-38.7,41.3C136.4,398,91.8,446.1,47,494
		c-2.2,2.4-6.3,4.1-9.7,4.2C25.7,498.7,14,498.4,0,498.4z M65.4,46c2.6,3.6,4.1,5.9,5.8,8c19.4,25.8,38.7,51.5,58.1,77.3
		c82.3,109.3,164.5,218.6,247,327.8c1.9,2.5,6.2,4.3,9.4,4.4c18.3,0.4,36.6,0.2,54.9,0.2c1.9,0,3.8-0.2,6.6-0.4
		c-1.8-2.7-3-4.6-4.3-6.4c-52.8-70.5-105.5-141-158.3-211.5c-48.4-64.6-96.8-129.2-145.3-193.7c-1.9-2.5-5.4-5.4-8.2-5.4
		C109.8,45.8,88.5,46,65.4,46z"/>
</g>
<g class="st0">
	<path class="st1" d="M0,255.8c0-52.1,0-104.1,0-156.2c0-4.8,0-4.8,4.6-4.8c20,0,40.1,0.1,60.1,0c18.5-0.1,37.1-0.6,55.6-0.3
		c15,0.2,30-0.2,44.9,0.5c18.4,0.9,36.5,3.6,53.1,12.2c21.8,11.3,32.9,29.7,35.7,53.7c1.1,9.7,1.2,19.3-0.4,28.9
		c-3.6,21.8-16,37.2-34.7,48.2c-1.9,1.1-5.5,1.9-5.3,3.7c0.2,2,3.7,1.9,5.8,2.7c20.8,7.9,36.4,21.5,44,42.6
		c10.5,29.1,10,57.9-6.4,85.1c-9.4,15.5-23.3,25.9-39.7,33.1c-18.7,8.2-38.4,12-58.8,12c-51.1,0.1-102.3,0-153.4,0c-5,0-5,0-5-5
		C0,360.1,0,308,0,255.8z M115.7,274.1c0,0,0-0.1,0-0.1c-13.1,0-26.3,0-39.4,0c-4.8,0-4.9,0.1-4.9,4.8c0,26,0,52.1,0,78.1
		c0,4.8,0,4.8,4.8,4.8c23.8,0,47.7,0.1,71.5,0c7.3,0,14.5-0.8,21.5-2.8c15.9-4.4,26.4-14,28.9-31c0.7-4.9,0.6-9.9,0.2-14.8
		c-1-14.1-6.5-25.6-19.5-32.4c-7.7-4-15.9-6.3-24.5-6.4C141.5,274,128.6,274.1,115.7,274.1z M111.1,224.9c10.7,0,21.4,0,32.1,0
		c4.5,0,9-0.4,13.4-1.5c12.6-3.1,23-9,27.1-22.3c2.2-7.2,2.3-14.6,1.3-21.9c-1.3-10-6.6-17.5-15.5-22.4c-8.4-4.7-17.6-6.2-27-6.3
		c-22.3-0.3-44.7-0.1-67-0.2c-3.2,0-4.2,1-4.2,4.2c0.1,22.1,0.1,44.2,0,66.3c0,3.2,1.1,4.2,4.2,4.2
		C87.4,224.9,99.3,224.9,111.1,224.9z"/>
	<path class="st1" d="M427.4,310.7c-26.3,0-52.5,0-78.8,0c-4.9,0-5.2,0.2-4.8,5.1c0.7,8.9,2.4,17.6,6.1,25.8
		c4.8,10.7,12.7,18.5,23.6,22.6c16.4,6.2,33.2,7,49.6,0.5c11.7-4.6,21.5-12,26.8-24c0.7-1.7,1.9-2.2,3.5-2.2c16.9,0,33.9,0,50.8,0
		c2.1,0,3.4,0.6,2.6,3.1c-5.7,16.3-13.2,31.7-25.1,44.5c-12.4,13.3-27.7,21.6-45.1,26.3c-28.5,7.6-57.1,7.3-85-2.6
		c-29.2-10.3-49.8-30.2-61.8-58.6c-13.5-32-15.3-65.1-4.8-98c14.6-45.8,46.7-72.7,94.1-80.4c23.6-3.8,46.9-1.5,68.8,9.1
		c26.9,13,44.4,34.5,54.7,62.2c7.6,20.4,10,41.5,9.1,63.2c-0.1,2.7-1.4,3.6-3.9,3.6c-8.3-0.1-16.6,0-24.9,0
		C464.5,310.7,446,310.7,427.4,310.7z M395.5,269.2c15.5,0,31.1,0,46.6,0c4.6,0,4.7-0.1,3.7-4.7c-1.1-5-2.5-9.8-4.5-14.5
		c-3.2-7.6-7.1-14.8-13.6-20.1c-9.5-7.9-20.9-9.6-32.8-9.5c-27.6,0.2-47,16.9-51.1,44.1c-0.6,4.2-0.1,4.8,4.2,4.8
		C364,269.2,379.8,269.2,395.5,269.2z"/>
	<path class="st1" d="M397.3,147.7c-20.3,0-40.5,0-60.8,0c-4.5,0-4.6-0.1-4.6-4.7c0-9.2,0.1-18.4-0.1-27.6c-0.1-3.2,0.8-4.5,4.3-4.5
		c40.8,0.1,81.6,0.1,122.3,0c3.4,0,4.4,1.2,4.3,4.4c-0.2,9.4-0.2,18.9,0,28.3c0.1,3.2-1.2,4.1-4.3,4.1
		C438.1,147.6,417.7,147.7,397.3,147.7z"/>
</g>
</svg>
